<svg width="98" height="74" viewBox="0 0 98 74" fill="none" xmlns="http://www.w3.org/2000/svg">
<g filter="url(#filter0_d_20_843)">
<rect width="82" height="58" rx="15" transform="matrix(-1 0 0 1 88 6)" fill="white"/>
<rect x="-0.5" y="0.5" width="81" height="57" rx="14.5" transform="matrix(-1 0 0 1 87 6)" stroke="#F2F2F2"/>
</g>
<path d="M60.0605 33.9393C60.6463 34.5251 60.6463 35.4749 60.0605 36.0607L50.5146 45.6066C49.9288 46.1924 48.9791 46.1924 48.3933 45.6066C47.8075 45.0208 47.8075 44.0711 48.3933 43.4853L56.8786 35L48.3933 26.5147C47.8075 25.9289 47.8075 24.9792 48.3933 24.3934C48.9791 23.8076 49.9288 23.8076 50.5146 24.3934L60.0605 33.9393ZM33.9999 33.5H58.9999V36.5H33.9999V33.5Z" fill="#FF8000"/>
<defs>
<filter id="filter0_d_20_843" x="0" y="0" width="98" height="74" filterUnits="userSpaceOnUse" color-interpolation-filters="sRGB">
<feFlood flood-opacity="0" result="BackgroundImageFix"/>
<feColorMatrix in="SourceAlpha" type="matrix" values="0 0 0 0 0 0 0 0 0 0 0 0 0 0 0 0 0 0 127 0" result="hardAlpha"/>
<feOffset dx="2" dy="2"/>
<feGaussianBlur stdDeviation="4"/>
<feComposite in2="hardAlpha" operator="out"/>
<feColorMatrix type="matrix" values="0 0 0 0 0 0 0 0 0 0 0 0 0 0 0 0 0 0 0.05 0"/>
<feBlend mode="normal" in2="BackgroundImageFix" result="effect1_dropShadow_20_843"/>
<feBlend mode="normal" in="SourceGraphic" in2="effect1_dropShadow_20_843" result="shape"/>
</filter>
</defs>
</svg>
