<svg width="332" height="332" viewBox="0 0 332 332" fill="none" xmlns="http://www.w3.org/2000/svg">
<path d="M114.025 218.622C70.7891 175.386 37.551 130.368 18.7571 92.5481C9.35898 73.6357 3.58586 56.5494 1.96615 42.4017C0.345657 28.2473 2.88921 17.1217 10.0054 10.0055C17.1216 2.88934 28.2472 0.345788 42.4015 1.96628C56.5493 3.58599 73.6356 9.35911 92.5479 18.7573C130.368 37.5511 175.386 70.7892 218.622 114.025C261.858 157.261 295.096 202.279 313.89 240.099C323.288 259.011 329.061 276.098 330.681 290.246C332.301 304.4 329.758 315.525 322.641 322.642C315.525 329.758 304.4 332.301 290.245 330.681C276.098 329.061 259.011 323.288 240.099 313.89C202.279 295.096 157.261 261.858 114.025 218.622Z" stroke="#365166" stroke-opacity="0.1"/>
</svg>
