<svg width="514" height="683" viewBox="0 0 514 683" fill="none" xmlns="http://www.w3.org/2000/svg">
<path d="M272.356 408.108C220.517 451.989 172.505 482.516 136.792 496.408C118.933 503.355 104.172 506.134 93.5487 504.364C82.9207 502.593 76.4914 496.284 75.1641 485.161C73.8369 474.038 77.7188 458.999 86.0129 441.211C94.3035 423.43 106.959 403.001 123.046 381.212C155.218 337.64 201.037 288.739 252.876 244.858C304.715 200.976 352.726 170.449 388.44 156.557C406.298 149.61 421.059 146.831 431.683 148.601C442.311 150.372 448.74 156.682 450.067 167.805C451.395 178.928 447.513 193.966 439.219 211.754C430.928 229.535 418.273 249.964 402.185 271.753C370.014 315.325 324.195 364.226 272.356 408.108Z" stroke="#365166" stroke-opacity="0.17"/>
<path d="M274.421 415.496C224.017 467.589 176.414 506.382 140.203 526.998C122.094 537.307 106.856 543.059 95.5466 543.673C84.2242 544.287 76.9296 539.751 74.5386 529.683C72.1476 519.614 74.8376 504.759 81.9317 486.34C89.0177 467.942 100.443 446.135 115.346 422.327C145.148 374.717 188.782 319.214 239.186 267.12C289.589 215.027 337.192 176.234 373.404 155.618C391.512 145.309 406.751 139.557 418.06 138.944C429.382 138.329 436.677 142.865 439.068 152.933C441.459 163.002 438.769 177.857 431.675 196.276C424.589 214.674 413.163 236.481 398.26 260.289C368.459 307.899 324.824 363.402 274.421 415.496Z" stroke="#365166" stroke-opacity="0.17"/>
<path d="M325.779 466.584L312.794 464.366L302.658 472.779L304.876 459.794L296.463 449.658L309.448 451.876L319.584 443.463L317.366 456.448L325.779 466.584Z" fill="#365166" fill-opacity="0.3"/>
</svg>
