<svg width="282" height="298" viewBox="0 0 282 298" fill="none" xmlns="http://www.w3.org/2000/svg">
<path d="M176.113 176.113C146.998 205.227 116.688 227.605 91.2322 240.254C78.502 246.58 67.0117 250.461 57.5077 251.549C47.9972 252.638 40.5631 250.924 35.8197 246.18C31.0764 241.437 29.3624 234.003 30.4512 224.492C31.5393 214.988 35.4196 203.498 41.7456 190.768C54.3954 165.312 76.7725 135.002 105.887 105.887C135.002 76.7726 165.312 54.3954 190.768 41.7457C203.498 35.4196 214.988 31.5394 224.492 30.4513C234.003 29.3625 241.437 31.0765 246.18 35.8198C250.923 40.5632 252.637 47.9973 251.549 57.5078C250.461 67.0118 246.58 78.5021 240.254 91.2323C227.604 116.688 205.227 146.998 176.113 176.113Z" stroke="#365166" stroke-opacity="0.17"/>
<path d="M180.302 179.125C155.119 211.7 127.894 237.744 104.251 253.523C92.4263 261.414 81.5215 266.721 72.2326 269.007C62.9372 271.294 55.3457 270.538 50.0386 266.435C44.7315 262.332 42.0876 255.176 41.9604 245.604C41.8332 236.038 44.2235 224.149 48.8824 210.718C58.1984 183.863 76.547 150.957 101.73 118.382C126.914 85.8074 154.138 59.7636 177.782 43.9849C189.606 36.094 200.511 30.7865 209.8 28.5008C219.095 26.2135 226.687 26.9699 231.994 31.0728C237.301 35.1757 239.945 42.3321 240.072 51.9039C240.199 61.4691 237.809 73.359 233.15 86.7893C223.834 113.645 205.485 146.55 180.302 179.125Z" stroke="#365166" stroke-opacity="0.17"/>
<path d="M221.668 154.924L204.47 156.521L194.488 170.616L192.89 153.419L178.795 143.436L195.993 141.839L205.975 127.744L207.573 144.942L221.668 154.924Z" fill="#BEC5C5"/>
</svg>
