<svg width="14" height="12" viewBox="0 0 14 12" fill="none" xmlns="http://www.w3.org/2000/svg">
<path d="M5.20994 12C4.75362 12 4.32143 11.826 4.04449 11.526L0.296347 7.47901C0.180465 7.35403 0.0958645 7.21161 0.0473806 7.05989C-0.00110318 6.90818 -0.012519 6.75014 0.0137855 6.59482C0.0400901 6.43949 0.103599 6.28993 0.200682 6.15468C0.297766 6.01942 0.426519 5.90113 0.579582 5.80656C0.73259 5.7116 0.907027 5.64225 1.0929 5.60249C1.27876 5.56272 1.47241 5.55331 1.66273 5.57482C1.85306 5.59632 2.03632 5.6483 2.20201 5.72778C2.3677 5.80727 2.51257 5.91269 2.62831 6.03802L5.09455 8.69884L11.2953 0.562076C11.5009 0.293422 11.8286 0.102387 12.2064 0.0308751C12.5841 -0.040637 12.9812 0.0132126 13.3105 0.180612C13.9955 0.528644 14.2063 1.26586 13.7783 1.82648L6.45198 11.4359C6.32691 11.6007 6.15453 11.7381 5.94979 11.8361C5.74504 11.9341 5.51413 11.9897 5.27708 11.9983C5.254 12 5.23302 12 5.20994 12Z" fill="white"/>
</svg>
