<svg width="25" height="14" viewBox="0 0 25 14" fill="none" xmlns="http://www.w3.org/2000/svg">
<path d="M24.4302 0.949375C24.602 0.4025 24.4302 0 23.6041 0H20.8706C20.1744 0 19.8542 0.345625 19.6825 0.730625C19.6825 0.730625 18.2902 3.92875 16.3224 6.0025C15.6866 6.60187 15.3942 6.79437 15.0461 6.79437C14.8744 6.79437 14.6099 6.60187 14.6099 6.055V0.949375C14.6099 0.293125 14.415 0 13.8395 0H9.5419C9.10565 0 8.84575 0.30625 8.84575 0.590625C8.84575 1.21187 9.82964 1.35625 9.93174 3.10625V6.90375C9.93174 7.735 9.77395 7.88812 9.42587 7.88812C8.49767 7.88812 6.24215 4.67688 4.90554 1.00188C4.63636 0.28875 4.37182 0 3.67103 0H0.937482C0.157794 0 0 0.345625 0 0.730625C0 1.41312 0.9282 4.80375 4.32077 9.28375C6.58094 12.3419 9.76467 14 12.6607 14C14.401 14 14.6145 13.6325 14.6145 12.9981C14.6145 10.0756 14.4567 9.8 15.3292 9.8C15.733 9.8 16.4291 9.9925 18.0535 11.4669C19.9099 13.2169 20.2162 14 21.2558 14H23.9893C24.769 14 25.1635 13.6325 24.9361 12.9062C24.4163 11.3794 20.9031 8.23812 20.7453 8.02812C20.3415 7.53813 20.4575 7.31938 20.7453 6.88188C20.7499 6.8775 24.0868 2.45 24.4302 0.949375Z" fill="#565656"/>
</svg>
