<svg width="51" height="45" viewBox="0 0 51 45" fill="none" xmlns="http://www.w3.org/2000/svg">
<path d="M50.3454 22.6787C50.3454 34.8289 41.8388 44.6787 31.3454 44.6787C20.852 44.6787 -10.1498 18.4225 3.34537 5.17867C11.2498 -2.57859 20.852 0.678673 31.3454 0.678673C41.8388 0.678673 50.3454 10.5284 50.3454 22.6787Z" fill="white"/>
<path d="M25.5 30.875C26.7311 30.875 27.9502 30.6325 29.0877 30.1614C30.2251 29.6902 31.2586 28.9997 32.1291 28.1291C32.9997 27.2586 33.6902 26.2251 34.1614 25.0877C34.6325 23.9502 34.875 22.7311 34.875 21.5C34.875 20.2689 34.6325 19.0498 34.1614 17.9123C33.6902 16.7749 32.9997 15.7414 32.1291 14.8709C31.2586 14.0003 30.2251 13.3098 29.0877 12.8386C27.9502 12.3675 26.7311 12.125 25.5 12.125C23.0136 12.125 20.629 13.1127 18.8709 14.8709C17.1127 16.629 16.125 19.0136 16.125 21.5C16.125 23.9864 17.1127 26.371 18.8709 28.1291C20.629 29.8873 23.0136 30.875 25.5 30.875ZM25.5 32.4375C22.5992 32.4375 19.8172 31.2852 17.766 29.234C15.7148 27.1828 14.5625 24.4008 14.5625 21.5C14.5625 18.5992 15.7148 15.8172 17.766 13.766C19.8172 11.7148 22.5992 10.5625 25.5 10.5625C28.4008 10.5625 31.1828 11.7148 33.234 13.766C35.2852 15.8172 36.4375 18.5992 36.4375 21.5C36.4375 24.4008 35.2852 27.1828 33.234 29.234C31.1828 31.2852 28.4008 32.4375 25.5 32.4375Z" fill="#FF7A2F"/>
<path d="M24.7188 15.25C24.926 15.25 25.1247 15.3323 25.2712 15.4788C25.4177 15.6253 25.5 15.824 25.5 16.0312V22.2812C25.5 22.4885 25.4177 22.6872 25.2712 22.8337C25.1247 22.9802 24.926 23.0625 24.7188 23.0625C24.5115 23.0625 24.3128 22.9802 24.1663 22.8337C24.0198 22.6872 23.9375 22.4885 23.9375 22.2812V16.0312C23.9375 15.824 24.0198 15.6253 24.1663 15.4788C24.3128 15.3323 24.5115 15.25 24.7188 15.25Z" fill="#FF7A2F"/>
<path d="M24.7188 21.5H30.9688C31.4896 21.5 31.75 21.7604 31.75 22.2812C31.75 22.8021 31.4896 23.0625 30.9688 23.0625H24.7188C24.1979 23.0625 23.9375 22.8021 23.9375 22.2812C23.9375 21.7604 24.1979 21.5 24.7188 21.5Z" fill="#FF7A2F"/>
</svg>
