<svg width="19" height="19" viewBox="0 0 19 19" fill="none" xmlns="http://www.w3.org/2000/svg">
<g clip-path="url(#clip0_15_50)">
<path d="M16.1987 2.76098C15.3267 1.88258 14.2888 1.18618 13.1454 0.712215C12.002 0.238254 10.7758 -0.00382205 9.53802 4.56238e-05C4.34983 4.56238e-05 0.127081 4.2228 0.127081 9.41455C0.127081 11.0735 0.561706 12.6956 1.38464 14.1206L0.0487061 19L5.03977 17.6902C6.4196 18.4418 7.96558 18.8362 9.53683 18.8374H9.54039C14.7286 18.8374 18.9549 14.6146 18.9549 9.42286C18.958 8.18553 18.716 6.95984 18.2427 5.81659C17.7694 4.67335 17.0743 3.63522 16.1975 2.76217L16.1987 2.76098ZM9.54039 17.2485C8.13814 17.2487 6.76164 16.8718 5.55514 16.1572L5.26896 15.9862L2.30733 16.7616L3.09821 13.8748L2.91296 13.5779C2.12654 12.332 1.71096 10.8879 1.71477 9.41455C1.71728 7.3389 2.54319 5.34904 4.01123 3.88167C5.47926 2.4143 7.4695 1.5893 9.54515 1.58773C11.634 1.58773 13.6016 2.40473 15.0777 3.8808C15.8061 4.60658 16.3835 5.46951 16.7765 6.41974C17.1694 7.36997 17.3702 8.38865 17.3672 9.41692C17.3636 13.7359 13.8534 17.2473 9.54039 17.2473V17.2485ZM13.8308 11.3858C13.5969 11.267 12.4391 10.6994 12.2241 10.621C12.0092 10.5427 11.8525 10.5023 11.6933 10.7398C11.5378 10.9737 11.0853 11.5045 10.9476 11.6637C10.8098 11.8192 10.6733 11.8418 10.4393 11.723C10.2054 11.6043 9.44421 11.3561 8.54646 10.5545C7.84821 9.93111 7.37439 9.15923 7.23664 8.9253C7.09889 8.69136 7.22121 8.56192 7.34114 8.44673C7.44921 8.34223 7.57508 8.17242 7.69383 8.03467C7.81258 7.89692 7.84939 7.80073 7.92777 7.64161C8.00614 7.48605 7.96814 7.3483 7.90877 7.22955C7.84939 7.1108 7.37796 5.95298 7.18558 5.48155C6.99677 5.0208 6.79964 5.08492 6.65477 5.07661C6.51702 5.06948 6.36146 5.06948 6.20589 5.06948C6.05033 5.06948 5.79383 5.12886 5.57889 5.3628C5.36396 5.59673 4.75477 6.16792 4.75477 7.32573C4.75477 8.48355 5.59671 9.60098 5.71546 9.76011C5.83421 9.91567 7.37439 12.2942 9.73396 13.3119C10.2945 13.553 10.7326 13.6979 11.0735 13.8095C11.6375 13.9876 12.1493 13.9615 12.5543 13.9021C13.0067 13.8356 13.946 13.3345 14.1431 12.7847C14.3403 12.2349 14.3403 11.7646 14.2809 11.6672C14.2251 11.5627 14.0695 11.5045 13.832 11.3846L13.8308 11.3858Z" fill="#565656"/>
</g>
<defs>
<clipPath id="clip0_15_50">
<rect width="19" height="19" fill="white"/>
</clipPath>
</defs>
</svg>
