<svg width="121" height="121" viewBox="0 0 121 121" fill="none" xmlns="http://www.w3.org/2000/svg">
<rect width="121" height="121" rx="20" fill="#FFF7E3"/>
<path d="M65.1298 60.9559C65.5948 60.491 65.5948 59.7378 65.1298 59.2733C64.6654 58.8084 63.9122 58.8084 63.4472 59.2733L57.6416 65.0907L55.6157 63.0648L83.9921 34.7589C84.5527 34.214 85.4455 34.214 86.0063 34.7589C86.2797 35.0223 86.4347 35.3862 86.4347 35.766C86.4347 36.1463 86.2797 36.5097 86.0063 36.7731L66.7998 55.9321C66.3968 56.4024 66.4243 57.1032 66.8617 57.5406C67.2992 57.9781 68 58.0056 68.4702 57.6025L87.6293 38.4557C88.3428 37.7427 88.7433 36.7747 88.7433 35.766C88.7433 34.7574 88.3428 33.7899 87.6293 33.0764C86.9041 32.3856 85.9409 32 84.9397 32C83.9384 32 82.9751 32.3856 82.25 33.0764L32.9611 82.3654C32.595 82.7314 32.5083 83.2926 32.7479 83.7517C32.9521 84.1457 33.3588 84.3928 33.8026 84.3917H33.992C40.5677 83.2947 46.7818 80.6283 52.1084 76.6189C54.13 75.0892 56.0025 73.3718 57.7004 71.4887C58.7122 70.3589 59.11 68.8075 58.7667 67.3301L65.1298 60.9559ZM55.9711 69.8538C54.3748 71.6284 52.6134 73.247 50.7102 74.6878C46.7701 77.653 42.3038 79.8444 37.547 81.1452L53.945 64.7471L55.8524 66.6545C56.2687 67.0766 56.5115 67.6389 56.5337 68.2308C56.5554 68.8232 56.3549 69.4019 55.9709 69.8535L55.9711 69.8538Z" fill="#202020"/>
<path d="M40.2713 86.6187C37.9561 86.6071 35.6447 86.441 33.3516 86.121C32.7042 86.0295 32.1049 86.4807 32.0129 87.1281C31.9658 87.4449 32.0489 87.7671 32.243 88.0215C32.4371 88.2759 32.7259 88.4409 33.0438 88.479C35.4462 88.817 37.8688 88.991 40.2951 89C40.9494 89 41.4799 88.47 41.4799 87.8152C41.4799 87.1609 40.9494 86.6304 40.2951 86.6304L40.2713 86.6187Z" fill="#202020"/>
<path d="M56.6708 84.3195C52.6895 85.5207 48.5823 86.2565 44.4311 86.5115C43.7768 86.5316 43.2621 87.0774 43.2822 87.7323C43.3018 88.3866 43.8482 88.9012 44.5025 88.8811H44.5855C48.9155 88.6204 53.2015 87.8613 57.3578 86.6183C57.9439 86.3993 58.2592 85.7625 58.0772 85.1637C57.8952 84.5655 57.2796 84.2111 56.6707 84.3555L56.6708 84.3195Z" fill="#202020"/>
<path d="M71.3383 76.8557C70.7575 77.2942 70.1535 77.7327 69.5494 78.159H69.5489C66.7413 80.0685 63.729 81.658 60.568 82.8983C60.0364 83.1083 59.7301 83.6684 59.8407 84.2297C59.9512 84.7903 60.4469 85.1923 61.0181 85.1855C61.1683 85.1855 61.317 85.1574 61.4566 85.1024C64.7927 83.779 67.9716 82.0901 70.9353 80.0668C71.5869 79.6167 72.2148 79.1544 72.831 78.6927V78.6921C73.3515 78.2933 73.4493 77.548 73.0505 77.0276C72.6512 76.5076 71.9059 76.4092 71.3854 76.8086L71.3383 76.8557Z" fill="#202020"/>
<path d="M83.7905 64.1069C83.5176 63.9488 83.1923 63.9059 82.8876 63.9884C82.583 64.0704 82.3238 64.2709 82.1672 64.5454C80.1213 68.1343 77.5406 71.3905 74.5135 74.2017C74.0337 74.6439 74.002 75.3908 74.4426 75.8721C74.6648 76.0964 74.9678 76.2228 75.2836 76.2228C75.5994 76.2228 75.9025 76.0964 76.1246 75.8721C79.3279 72.8995 82.0641 69.4602 84.2408 65.6709C84.5296 65.1124 84.3318 64.4263 83.7907 64.1068L83.7905 64.1069Z" fill="#202020"/>
<path d="M87.6767 53.4434C87.0425 53.2953 86.4073 53.6867 86.2549 54.3204C85.7112 56.5636 84.9532 58.7498 83.9921 60.8486C83.8646 61.1364 83.8567 61.4627 83.9699 61.7558C84.0836 62.0493 84.3089 62.2852 84.5961 62.4127C84.749 62.482 84.9146 62.5185 85.0822 62.519C85.5503 62.5164 85.973 62.2376 86.1602 61.8081C87.1594 59.5786 87.9522 57.263 88.5299 54.889C88.6092 54.5838 88.5637 54.2601 88.4035 53.9893C88.2437 53.7179 87.9819 53.5217 87.6767 53.4434L87.6767 53.4434Z" fill="#202020"/>
</svg>
