<svg width="51" height="45" viewBox="0 0 51 45" fill="none" xmlns="http://www.w3.org/2000/svg">
<path d="M50.3454 22.6787C50.3454 34.8289 41.8388 44.6787 31.3454 44.6787C20.852 44.6787 -10.1498 18.4225 3.34537 5.17867C11.2498 -2.57859 20.852 0.678673 31.3454 0.678673C41.8388 0.678673 50.3454 10.5284 50.3454 22.6787Z" fill="white"/>
<path d="M26.5 28.875C27.7311 28.875 28.9502 28.6325 30.0877 28.1614C31.2251 27.6902 32.2586 26.9997 33.1291 26.1291C33.9997 25.2586 34.6902 24.2251 35.1614 23.0877C35.6325 21.9502 35.875 20.7311 35.875 19.5C35.875 18.2689 35.6325 17.0498 35.1614 15.9123C34.6902 14.7749 33.9997 13.7414 33.1291 12.8709C32.2586 12.0003 31.2251 11.3098 30.0877 10.8386C28.9502 10.3675 27.7311 10.125 26.5 10.125C24.0136 10.125 21.629 11.1127 19.8709 12.8709C18.1127 14.629 17.125 17.0136 17.125 19.5C17.125 21.9864 18.1127 24.371 19.8709 26.1291C21.629 27.8873 24.0136 28.875 26.5 28.875ZM26.5 30.4375C23.5992 30.4375 20.8172 29.2852 18.766 27.234C16.7148 25.1828 15.5625 22.4008 15.5625 19.5C15.5625 16.5992 16.7148 13.8172 18.766 11.766C20.8172 9.71484 23.5992 8.5625 26.5 8.5625C29.4008 8.5625 32.1828 9.71484 34.234 11.766C36.2852 13.8172 37.4375 16.5992 37.4375 19.5C37.4375 22.4008 36.2852 25.1828 34.234 27.234C32.1828 29.2852 29.4008 30.4375 26.5 30.4375Z" fill="#FF7A2F"/>
<path d="M25.7188 13.25C25.926 13.25 26.1247 13.3323 26.2712 13.4788C26.4177 13.6253 26.5 13.824 26.5 14.0312V20.2812C26.5 20.4885 26.4177 20.6872 26.2712 20.8337C26.1247 20.9802 25.926 21.0625 25.7188 21.0625C25.5115 21.0625 25.3128 20.9802 25.1663 20.8337C25.0198 20.6872 24.9375 20.4885 24.9375 20.2812V14.0312C24.9375 13.824 25.0198 13.6253 25.1663 13.4788C25.3128 13.3323 25.5115 13.25 25.7188 13.25Z" fill="#FF7A2F"/>
<path d="M25.7188 19.5H31.9688C32.4896 19.5 32.75 19.7604 32.75 20.2812C32.75 20.8021 32.4896 21.0625 31.9688 21.0625H25.7188C25.1979 21.0625 24.9375 20.8021 24.9375 20.2812C24.9375 19.7604 25.1979 19.5 25.7188 19.5Z" fill="#FF7A2F"/>
</svg>
