<svg width="121" height="121" viewBox="0 0 121 121" fill="none" xmlns="http://www.w3.org/2000/svg">
<rect width="121" height="121" rx="20" fill="#F0FAFF"/>
<path d="M84.2458 34.6837C78.059 29.3018 71.2829 32.8178 67.1785 38.1892C66.0396 39.4953 64.9688 40.7228 63.9965 41.0468V41.0472C61.689 41.8175 59.1941 41.8175 56.8867 41.0472C55.9932 40.7526 54.9226 39.5251 53.7837 38.219C49.6784 32.8274 42.9119 29.2921 36.7152 34.6837C34.2504 36.9424 31.4319 41.558 32.0996 50.8386C32.8067 60.7476 35.0457 63.7432 37.0098 66.3941V66.3937C37.8366 67.4139 38.5175 68.5445 39.0326 69.7524C40.9967 75.0357 40.7021 89.0891 47.1835 88.9903C53.3309 88.9903 55.6195 81.7627 55.6195 77.2058C55.6195 73.4543 53.7439 66.8944 59.3512 67.2184C61.0303 67.2184 63.692 66.9141 64.7034 68.2004C66.4417 70.1645 65.3711 74.4952 65.3812 77.2155C65.3812 81.7623 67.6693 89 73.8171 89C78.4231 89 79.5717 82.1257 80.5836 76.0572C81.271 71.8441 81.6344 69.2614 83.9913 66.4038C85.9554 63.7523 88.1746 60.7571 88.9015 50.8482C89.5197 41.5775 86.7107 36.9425 84.2461 34.6844L84.2458 34.6837ZM86.907 50.7499C86.2393 60.0793 84.1968 62.8386 82.3896 65.2741C79.9249 68.2202 79.2866 71.4119 78.6284 75.7819C77.7841 80.8101 76.7428 87.0749 73.7967 87.0749C68.8865 87.0749 67.3249 80.4658 67.3249 77.2544C67.3249 74.0431 68.5033 69.516 66.117 66.9035C64.7224 65.1555 61.6488 65.2537 59.3606 65.3028C57.6938 65.1529 56.044 65.7373 54.8433 66.9035C52.4473 69.4765 53.6061 73.9448 53.6061 77.264C53.6061 80.5832 52.0252 87.0844 47.1343 87.0844C44.1881 87.0844 43.1474 80.8191 42.3025 75.7915C41.6444 71.431 40.9964 68.2201 38.5413 65.2836C36.764 62.789 34.7215 60.0297 34.0538 50.7494C33.4348 41.7146 36.2927 33.2398 44.7677 34.104C48.0869 34.6441 50.3163 37.207 52.2899 39.4758C53.6648 41.0568 54.8529 42.422 56.2181 42.8836H56.3163C59.0297 43.7815 61.9604 43.7815 64.6738 42.8836C66.0684 42.4219 67.2565 41.0572 68.602 39.4758C70.566 37.2075 72.805 34.6441 76.1242 34.104C84.668 33.2399 87.526 41.7244 86.9069 50.7494L86.907 50.7499Z" fill="#202020"/>
<path d="M44.4635 36.019C37.5107 35.3316 35.4975 43.0113 36.0179 50.5432C36.0556 51.0855 36.526 51.4941 37.0684 51.4564C37.6111 51.4183 38.0197 50.9478 37.982 50.4055C37.5695 44.3366 38.8067 37.4919 44.1491 37.9824C44.6914 38.0692 45.2013 37.7001 45.2881 37.1573C45.3749 36.615 45.0057 36.1051 44.4634 36.0183L44.4635 36.019Z" fill="#202020"/>
<path d="M68.3368 50.7497H64.4087V46.8215C64.4087 46.5611 64.3052 46.3112 64.1211 46.1271C63.9369 45.9429 63.687 45.8395 63.4266 45.8395H57.5343C56.992 45.8395 56.5523 46.2792 56.5523 46.8215V50.7497H52.6241C52.0818 50.7497 51.6421 51.1894 51.6421 51.7317V57.624C51.6421 57.8844 51.7456 58.1343 51.9297 58.3184C52.1138 58.5026 52.3637 58.606 52.6241 58.606H56.5523V62.5342C56.5523 62.7946 56.6558 63.0445 56.8399 63.2287C57.024 63.4128 57.2739 63.5163 57.5343 63.5163H63.4266C63.687 63.5163 63.9369 63.4128 64.1211 63.2287C64.3052 63.0445 64.4087 62.7946 64.4087 62.5342V58.606H68.3368C68.5972 58.606 68.8471 58.5026 69.0313 58.3184C69.2154 58.1343 69.3189 57.8844 69.3189 57.624V51.7317C69.3189 51.4713 69.2154 51.2214 69.0313 51.0373C68.8471 50.8532 68.5972 50.7497 68.3368 50.7497ZM67.3548 56.642C61.4625 56.7305 62.5428 55.6599 62.4446 61.5522H58.5164C58.4278 55.6599 59.4984 56.7402 53.6062 56.642V52.7138C59.4984 52.6252 58.4182 53.6958 58.5164 47.8036H62.4446C62.5331 53.6958 61.4625 52.6156 67.3548 52.7138V56.642Z" fill="#202020"/>
</svg>
