<svg width="121" height="121" viewBox="0 0 121 121" fill="none" xmlns="http://www.w3.org/2000/svg">
<rect width="121" height="121" rx="20" fill="#FFF7E3"/>
<path d="M41.9935 52.0798C44.2262 52.0798 46.332 52.5541 48.0847 53.4498C49.6998 54.2767 51.5778 54.2064 53.1104 53.2635C54.6144 52.3377 55.5058 50.727 55.495 48.9543C55.4928 48.5753 55.4749 48.1927 55.4405 47.8072V47.8079C54.8565 41.2007 49.4151 35.9343 42.7837 35.5559C39.0184 35.3431 35.4507 36.6415 32.7236 39.2181C29.9943 41.7963 28.4911 45.2828 28.4918 49.1198C28.5026 50.828 29.3861 52.3806 30.8572 53.2741C31.6819 53.775 32.6034 54.0272 33.5298 54.0272C34.3359 54.0272 35.1448 53.8366 35.8957 53.4526C37.6512 52.554 39.7591 52.0797 41.9933 52.0797L41.9935 52.0798ZM31.924 51.518C31.0548 50.9899 30.5525 50.1115 30.5461 49.0345C30.5461 45.8531 31.8208 42.8967 34.1344 40.7113C36.2818 38.6827 39.0484 37.5873 41.9869 37.5873C42.2126 37.5873 42.439 37.5937 42.6662 37.6066C48.2867 37.9269 52.8989 42.3902 53.394 47.9885V47.9892C53.4234 48.3174 53.4384 48.6434 53.4399 48.9666C53.4463 50.0306 52.9333 50.9592 52.0333 51.5139C51.1169 52.0785 49.9919 52.1179 49.0203 51.6206C46.9796 50.5767 44.5491 50.0249 41.9932 50.0249C39.4352 50.0249 37.0033 50.5774 34.9597 51.6228C33.9873 52.1208 32.8502 52.0814 31.9237 51.5182L31.924 51.518Z" fill="#202020"/>
<path d="M41.9936 34.0833C45.0488 34.0833 47.5352 31.5969 47.5352 28.5417C47.5352 25.4864 45.0488 23 41.9936 23C38.9383 23 36.4519 25.4864 36.4519 28.5417C36.4519 31.5969 38.9383 34.0833 41.9936 34.0833ZM41.9936 25.0543C43.9167 25.0543 45.481 26.6184 45.481 28.5417C45.481 30.4648 43.9168 32.0291 41.9936 32.0291C40.0703 32.0291 38.5062 30.4649 38.5062 28.5417C38.5062 26.6186 40.0703 25.0543 41.9936 25.0543Z" fill="#202020"/>
<path d="M53.1424 38.3628C54.3834 38.3628 55.6244 37.8906 56.5689 36.9462C58.4585 35.0567 58.4585 31.9827 56.5689 30.0941C54.6801 28.2039 51.6054 28.2039 49.7168 30.0941C47.8273 31.9837 47.8273 35.0576 49.7168 36.9462C50.6605 37.8913 51.9015 38.3628 53.1426 38.3628H53.1424ZM51.1683 31.5465C51.7129 31.0019 52.4273 30.7304 53.1417 30.7304C53.8568 30.7304 54.5712 31.0019 55.115 31.5465C56.2035 32.6349 56.2035 34.4054 55.115 35.4939C54.0266 36.5823 52.2561 36.5823 51.1676 35.4939C50.0799 34.4055 50.0799 32.635 51.1683 31.5465H51.1683Z" fill="#202020"/>
<path d="M34.2692 36.943C36.1588 35.0535 36.1588 31.9796 34.2692 30.0909C32.3804 28.2007 29.3058 28.2007 27.4171 30.0909C25.5276 31.9805 25.5276 35.0544 27.4171 36.943C28.3615 37.8881 29.6026 38.3596 30.8437 38.3596C32.084 38.3603 33.3249 37.8882 34.2694 36.943H34.2692ZM28.8694 31.5432C29.414 30.9986 30.1283 30.7271 30.8427 30.7271C31.5578 30.7271 32.2722 30.9986 32.8161 31.5432C33.9045 32.6316 33.9045 34.4021 32.8161 35.4906C31.7277 36.5791 29.9571 36.579 28.8686 35.4906C27.7809 34.4022 27.7809 32.6317 28.8694 31.5432H28.8694Z" fill="#202020"/>
<path d="M58.6528 60.1911L46.4726 72.3713C45.5124 73.3315 45.5124 74.8935 46.4726 75.8536L56.284 85.665C56.764 86.1451 57.3946 86.3851 58.0251 86.3851C58.6564 86.3851 59.2862 86.1451 59.7663 85.665L71.9465 73.4848C72.3478 73.0835 72.3478 72.4336 71.9465 72.0324L60.1051 60.1909C59.7038 59.7897 59.0539 59.7897 58.6527 60.1909L58.6528 60.1911ZM58.3139 84.2133C58.1541 84.3731 57.8961 84.3717 57.7364 84.2133L47.925 74.4012C47.7659 74.2421 47.7659 73.9828 47.925 73.8237L59.3786 62.37L69.7676 72.759L58.3139 84.2133Z" fill="#202020"/>
<path d="M90.546 53.1969C91.3607 53.1969 92.1747 52.8867 92.7946 52.2669C93.3957 51.6657 93.7267 50.8675 93.7267 50.0176C93.7267 49.1678 93.3957 48.3696 92.7946 47.7691L84.3681 39.3421C83.127 38.1032 81.1107 38.1025 79.8703 39.3428C79.2692 39.944 78.9381 40.7422 78.9381 41.592C78.9381 42.4418 79.2692 43.2401 79.8703 43.8406L80.7638 44.7341L77.9307 47.5664L71.947 41.582C70.1013 39.7356 67.0961 39.7356 65.2503 41.582C64.3553 42.4762 63.8631 43.6663 63.8631 44.9303C63.8631 45.8446 64.1282 46.7152 64.609 47.4676L43.0888 68.9878C40.4798 71.5967 40.2857 75.7131 42.4948 78.5541L40.937 80.1119C39.9059 81.1429 39.9031 82.8167 40.9299 83.8451L42.287 85.2022L34.4423 95.5954C33.9866 96.198 34.0439 97.0235 34.5785 97.5572C34.8715 97.8503 35.2527 98 35.636 98C35.9513 98 36.2687 97.899 36.5403 97.6941L46.9336 89.8487L48.2907 91.2058C48.803 91.7181 49.4765 91.9739 50.1508 91.9739C50.8287 91.9739 51.5072 91.716 52.0239 91.1993L53.5809 89.6416C54.847 90.629 56.3918 91.1699 58.0234 91.1699C59.9595 91.1699 61.7795 90.4161 63.1481 89.0469L84.6665 67.5285C85.4382 68.0194 86.3203 68.2716 87.2045 68.2716C88.4176 68.2716 89.63 67.8101 90.5528 66.8865C92.3993 65.0401 92.3993 62.0364 90.5528 60.1898L84.5684 54.2053L87.4015 51.373L88.2943 52.2658V52.2665C88.9169 52.8877 89.7309 53.198 90.5455 53.198L90.546 53.1969ZM38.4808 93.6565L43.7544 86.6688L45.4684 88.3828L38.4808 93.6565ZM50.573 89.7464C50.3422 89.9764 49.9704 89.9793 49.7447 89.7536L42.383 82.3919C42.1566 82.1655 42.1594 81.7944 42.3894 81.5644L43.9028 80.0503L52.0862 88.2338L50.573 89.7464ZM61.6972 87.5948C60.7162 88.5757 59.4122 89.116 58.0249 89.116C56.6384 89.116 55.3343 88.5757 54.3526 87.5948L44.5412 77.7834C42.517 75.7585 42.517 72.4639 44.5412 70.4397L65.9752 49.0057L83.131 66.1608L61.6972 87.5948ZM89.1019 61.6429C90.1473 62.6883 90.1473 64.3887 89.1019 65.434C88.0565 66.4794 86.3554 66.4787 85.3107 65.434L66.7016 46.8249C66.195 46.3183 65.9163 45.6455 65.9163 44.9289C65.9163 44.2131 66.195 43.5396 66.7016 43.033C67.2082 42.5271 67.881 42.2477 68.5975 42.2477C69.3133 42.2477 69.9862 42.5264 70.4927 43.033L77.2023 49.7425L77.203 49.7433L82.3914 54.9316L89.1019 61.6429ZM83.1174 52.7528L79.3822 49.0176L82.2153 46.1852L85.9505 49.9205L83.1174 52.7528ZM88.1302 49.1952L85.5351 46.6L81.3218 42.386C81.109 42.1739 80.9915 41.8909 80.9915 41.5907C80.9915 41.2897 81.109 41.0067 81.3218 40.7939C81.761 40.3554 82.4747 40.3554 82.9147 40.7939L91.3412 49.2209C91.554 49.433 91.6715 49.716 91.6715 50.0163C91.6715 50.3172 91.554 50.6002 91.3412 50.8131C90.9019 51.2516 90.1882 51.2516 89.7483 50.8131L88.1302 49.1952Z" fill="#202020"/>
</svg>
