<svg width="51" height="45" viewBox="0 0 51 45" fill="none" xmlns="http://www.w3.org/2000/svg">
<path d="M50.3454 22.6787C50.3454 34.8289 41.8388 44.6787 31.3454 44.6787C20.852 44.6787 -10.1498 18.4225 3.34537 5.17867C11.2498 -2.57859 20.852 0.678673 31.3454 0.678673C41.8388 0.678673 50.3454 10.5284 50.3454 22.6787Z" fill="white"/>
<path d="M29.123 15.9442C28.3415 15.9442 27.5776 16.1759 26.9279 16.6101C26.2781 17.0443 25.7717 17.6613 25.4726 18.3833C25.1736 19.1053 25.0953 19.8997 25.2478 20.6662C25.4003 21.4326 25.7766 22.1366 26.3291 22.6892C26.8817 23.2418 27.5857 23.6181 28.3522 23.7705C29.1186 23.923 29.913 23.8447 30.635 23.5457C31.357 23.2466 31.9741 22.7402 32.4082 22.0905C32.8424 21.4407 33.0741 20.6768 33.0741 19.8953C33.0741 18.8474 32.6578 17.8424 31.9169 17.1015C31.1759 16.3605 30.1709 15.9442 29.123 15.9442ZM29.123 22.4674C28.6143 22.4674 28.117 22.3165 27.6941 22.0339C27.2711 21.7513 26.9414 21.3496 26.7468 20.8796C26.5521 20.4096 26.5012 19.8925 26.6004 19.3936C26.6996 18.8946 26.9446 18.4363 27.3043 18.0766C27.664 17.7169 28.1223 17.472 28.6212 17.3727C29.1201 17.2735 29.6373 17.3244 30.1073 17.5191C30.5772 17.7138 30.9789 18.0434 31.2615 18.4664C31.5442 18.8894 31.695 19.3866 31.695 19.8953C31.6932 20.5763 31.4214 21.2287 30.9393 21.7096C30.4571 22.1904 29.8039 22.4605 29.123 22.4605V22.4674Z" fill="#FF7A2F"/>
<path d="M37.239 20.6124C36.7711 20.5994 36.3072 20.5229 35.8599 20.3849V20.7779C35.8599 23.5775 34.1912 26.0668 32.9707 27.8872L32.7224 28.2526C31.5364 30.0317 29.9642 32.0245 29.1161 33.0105C28.3024 32.0245 26.6958 30.0317 25.5098 28.2526L25.2753 27.8596C24.0548 26.0392 22.3792 23.5499 22.3792 20.7504C22.3834 19.5909 22.6867 18.4521 23.2599 17.4442C23.8331 16.4363 24.6568 15.5934 25.6511 14.9971C26.6455 14.4008 27.777 14.0712 28.936 14.0402C30.0951 14.0092 31.2425 14.2779 32.2673 14.8202C32.3222 14.3461 32.4429 13.8819 32.6259 13.4411C31.3876 12.8431 30.0175 12.57 28.6446 12.6477C27.2716 12.7254 25.9411 13.1512 24.7781 13.8851C23.6152 14.619 22.6582 15.6368 21.9973 16.8427C21.3363 18.0486 20.9932 19.4028 21.0001 20.7779C21.0001 23.9981 22.8067 26.6943 24.1307 28.6595L24.372 29.018C25.6892 30.9272 27.1023 32.7683 28.6058 34.5344L29.1299 35.1481L29.6539 34.5344C31.1573 32.7682 32.5703 30.927 33.8878 29.018L34.1291 28.6526C35.4462 26.6874 37.2528 23.9981 37.2528 20.7779C37.2459 20.7228 37.239 20.6676 37.239 20.6124Z" fill="#FF7A2F"/>
<path d="M37.3976 18.8955C39.3017 18.8955 40.8453 17.3519 40.8453 15.4477C40.8453 13.5436 39.3017 12 37.3976 12C35.4934 12 33.9498 13.5436 33.9498 15.4477C33.9498 17.3519 35.4934 18.8955 37.3976 18.8955Z" fill="#FF7A2F"/>
</svg>
