<svg width="438" height="479" viewBox="0 0 438 479" fill="none" xmlns="http://www.w3.org/2000/svg">
<path d="M287.339 176.576C328.551 221.893 358.109 269.938 372.593 310.966C379.836 331.482 383.301 350.219 382.587 365.971C381.874 381.72 376.986 394.447 367.563 403.017C358.139 411.587 345.007 415.248 329.261 414.467C313.512 413.686 295.187 408.463 275.449 399.311C235.976 381.007 190.945 347.035 149.733 301.718C108.521 256.402 78.9637 208.357 64.4792 167.328C57.2366 146.812 53.7712 128.075 54.4849 112.323C55.1985 96.5738 60.086 83.8471 69.5094 75.2773C78.9328 66.7075 92.065 63.0467 107.811 63.8272C123.56 64.6078 141.885 69.8313 161.623 78.9834C201.096 97.2867 246.127 131.26 287.339 176.576Z" stroke="#F8F6EE" stroke-opacity="0.38"/>
<path d="M296.17 185.82C297.016 187.239 297.857 188.666 298.694 190.1L298.263 190.352C298.681 191.069 299.098 191.787 299.514 192.508C299.93 193.228 300.343 193.948 300.755 194.669L301.189 194.421C302.013 195.863 302.828 197.305 303.634 198.747L303.197 198.991C304.005 200.436 304.803 201.88 305.592 203.324L306.031 203.084C306.83 204.544 307.619 206.004 308.399 207.463L307.958 207.698C308.737 209.156 309.507 210.613 310.268 212.07L310.712 211.838C311.483 213.314 312.245 214.79 312.998 216.265L312.553 216.492C313.305 217.966 314.049 219.44 314.782 220.912L315.23 220.689C315.972 222.178 316.704 223.665 317.427 225.151L316.977 225.37C317.702 226.861 318.418 228.351 319.123 229.839L319.575 229.625C320.287 231.126 320.988 232.625 321.68 234.122L321.226 234.331C321.923 235.839 322.609 237.345 323.286 238.849L323.741 238.643C324.422 240.156 325.092 241.667 325.752 243.175L325.294 243.375C325.961 244.899 326.617 246.421 327.263 247.939L327.723 247.744C328.372 249.269 329.01 250.791 329.637 252.309L329.174 252.5C329.81 254.04 330.435 255.577 331.049 257.111L331.513 256.925C332.128 258.462 332.732 259.995 333.325 261.525L332.859 261.706C333.462 263.262 334.054 264.813 334.634 266.361L335.102 266.185C335.683 267.735 336.252 269.281 336.809 270.821L336.339 270.992C336.908 272.562 337.464 274.128 338.008 275.689L338.48 275.525C339.025 277.088 339.557 278.646 340.078 280.198L339.604 280.357C340.135 281.942 340.654 283.521 341.159 285.095L341.635 284.942C342.142 286.518 342.636 288.089 343.117 289.653L342.639 289.8C343.131 291.399 343.609 292.991 344.074 294.576L344.554 294.435C345.02 296.026 345.473 297.61 345.912 299.187L345.431 299.321C345.879 300.931 346.314 302.534 346.734 304.129L347.218 304.002C347.641 305.608 348.05 307.206 348.444 308.796L347.959 308.917C348.361 310.537 348.748 312.149 349.119 313.752L349.606 313.639C349.983 315.262 350.344 316.875 350.689 318.479L350.201 318.584C350.551 320.212 350.886 321.831 351.205 323.438L351.695 323.341C352.02 324.981 352.329 326.61 352.62 328.228L352.128 328.316C352.423 329.95 352.7 331.571 352.96 333.181L353.454 333.101C353.721 334.759 353.971 336.403 354.202 338.035L353.707 338.105C353.941 339.751 354.155 341.382 354.351 343L354.848 342.94C355.049 344.604 355.231 346.253 355.393 347.886L354.896 347.935C355.06 349.599 355.205 351.246 355.328 352.877L355.827 352.839C355.953 354.498 356.057 356.14 356.14 357.764L355.641 357.79C355.726 359.468 355.789 361.127 355.829 362.766L356.328 362.754C356.369 364.431 356.385 366.087 356.377 367.721L355.877 367.719C355.869 369.383 355.835 371.024 355.777 372.642L356.276 372.66C356.215 374.345 356.127 376.004 356.011 377.636L355.512 377.601C355.393 379.275 355.245 380.921 355.068 382.537L355.565 382.592C355.382 384.262 355.168 385.901 354.923 387.508L354.429 387.432C354.177 389.083 353.893 390.699 353.575 392.28L354.065 392.378C353.733 394.033 353.365 395.65 352.96 397.227L352.476 397.103C352.058 398.73 351.602 400.315 351.108 401.856L351.584 402.009C351.067 403.616 350.509 405.175 349.909 406.686L349.444 406.501C348.826 408.057 348.163 409.559 347.455 411.007L347.904 411.227C347.164 412.739 346.375 414.193 345.537 415.587L345.109 415.329C344.25 416.756 343.341 418.118 342.379 419.412L342.78 419.711C341.781 421.055 340.727 422.329 339.616 423.529L339.249 423.19C338.129 424.399 336.953 425.533 335.719 426.588L336.044 426.968C334.785 428.045 333.466 429.042 332.088 429.956L331.811 429.539C331.13 429.991 330.434 430.422 329.723 430.832C329.013 431.243 328.291 431.63 327.56 431.994L327.782 432.441C326.301 433.178 324.779 433.822 323.217 434.374L323.05 433.902C321.519 434.443 319.949 434.896 318.342 435.26L318.453 435.748C316.858 436.11 315.227 436.386 313.564 436.579L313.506 436.082C311.904 436.268 310.27 436.375 308.605 436.405L308.614 436.905C306.988 436.934 305.334 436.89 303.654 436.774L303.689 436.276C302.081 436.165 300.448 435.988 298.792 435.746L298.72 436.24C297.111 436.005 295.481 435.708 293.832 435.352L293.937 434.863C292.355 434.522 290.755 434.124 289.137 433.672L289.002 434.153C287.434 433.715 285.849 433.226 284.25 432.686L284.41 432.212C282.882 431.697 281.34 431.135 279.786 430.528L279.604 430.993C278.089 430.402 276.563 429.768 275.025 429.091L275.227 428.634C273.738 427.979 272.239 427.284 270.73 426.55L270.511 427C269.039 426.284 267.558 425.531 266.068 424.742L266.302 424.3C264.872 423.542 263.434 422.75 261.989 421.925L261.741 422.36C260.322 421.549 258.896 420.707 257.464 419.834L257.724 419.407C256.324 418.553 254.919 417.67 253.508 416.756L253.236 417.176C251.871 416.292 250.502 415.381 249.127 414.442L249.409 414.029C248.059 413.107 246.705 412.158 245.346 411.183L245.055 411.59C243.721 410.633 242.384 409.651 241.044 408.644L241.344 408.245C240.042 407.266 238.736 406.264 237.427 405.239L237.119 405.633C235.822 404.617 234.522 403.578 233.22 402.517L233.536 402.13C232.273 401.1 231.007 400.049 229.74 398.978L229.417 399.359C228.162 398.298 226.905 397.217 225.647 396.115L225.977 395.739C224.744 394.659 223.51 393.56 222.275 392.442L221.939 392.813C220.723 391.712 219.507 390.592 218.289 389.455L218.631 389.09C217.429 387.966 216.226 386.825 215.024 385.667L214.677 386.027C213.497 384.89 212.317 383.737 211.138 382.567L211.49 382.212C210.319 381.051 209.148 379.873 207.978 378.68L207.621 379.03C206.475 377.861 205.329 376.676 204.185 375.477L204.546 375.132C203.406 373.937 202.267 372.727 201.128 371.502L200.762 371.842C199.648 370.643 198.535 369.43 197.423 368.203L197.793 367.868C196.683 366.643 195.575 365.404 194.468 364.151L194.093 364.483C193.009 363.256 191.926 362.015 190.845 360.762L191.224 360.436C190.144 359.184 189.066 357.919 187.989 356.641L187.607 356.964C186.551 355.71 185.497 354.445 184.446 353.167L184.832 352.849C183.782 351.573 182.734 350.285 181.688 348.985L181.298 349.298C180.27 348.02 179.244 346.73 178.22 345.428L178.613 345.119C177.592 343.821 176.574 342.512 175.558 341.191L175.161 341.496C174.16 340.193 173.161 338.88 172.164 337.556L172.564 337.255C171.571 335.937 170.582 334.608 169.595 333.268L169.193 333.564C168.217 332.239 167.244 330.903 166.274 329.557L166.68 329.265C165.716 327.928 164.755 326.58 163.797 325.223L163.389 325.511C162.438 324.164 161.491 322.807 160.547 321.44L160.958 321.156C160.022 319.801 159.09 318.436 158.161 317.063L157.747 317.343C156.821 315.974 155.899 314.596 154.981 313.209L155.398 312.933C154.49 311.561 153.585 310.181 152.685 308.792L152.265 309.064C151.364 307.675 150.468 306.277 149.575 304.871L149.997 304.603C149.116 303.215 148.239 301.82 147.367 300.416L146.942 300.68C146.068 299.275 145.199 297.862 144.334 296.44L144.761 296.18C143.905 294.774 143.053 293.361 142.206 291.939L141.777 292.195C140.931 290.776 140.089 289.35 139.252 287.915L139.684 287.663C139.266 286.946 138.849 286.228 138.433 285.508C138.017 284.787 137.603 284.067 137.192 283.347L136.758 283.595C135.934 282.152 135.119 280.71 134.313 279.268L134.75 279.024C133.942 277.58 133.144 276.135 132.354 274.692L131.916 274.931C131.117 273.471 130.328 272.012 129.548 270.553L129.989 270.317C129.209 268.859 128.439 267.402 127.678 265.946L127.235 266.177C126.464 264.701 125.701 263.225 124.949 261.751L125.394 261.523C124.641 260.049 123.898 258.575 123.164 257.103L122.717 257.326C121.975 255.837 121.243 254.35 120.52 252.864L120.97 252.645C120.245 251.154 119.529 249.664 118.824 248.176L118.372 248.39C117.66 246.89 116.959 245.391 116.267 243.894L116.721 243.684C116.024 242.176 115.338 240.67 114.661 239.167L114.205 239.372C113.525 237.859 112.855 236.349 112.195 234.841L112.653 234.64C111.986 233.116 111.329 231.594 110.684 230.076L110.223 230.272C109.575 228.747 108.937 227.225 108.31 225.706L108.772 225.515C108.137 223.975 107.512 222.438 106.898 220.905L106.434 221.091C105.819 219.553 105.214 218.02 104.621 216.49L105.088 216.309C104.484 214.754 103.893 213.202 103.313 211.654L102.845 211.83C102.264 210.28 101.695 208.735 101.137 207.194L101.608 207.024C101.039 205.453 100.483 203.887 99.9388 202.326L99.4666 202.49C98.9219 200.928 98.3893 199.37 97.8689 197.817L98.3429 197.658C97.8117 196.073 97.2931 194.494 96.7873 192.92L96.3113 193.073C95.8046 191.497 95.3106 189.926 94.8295 188.362L95.3074 188.215C94.8158 186.617 94.3376 185.025 93.8729 183.44L93.3931 183.58C92.9266 181.989 92.4737 180.405 92.0344 178.829L92.5161 178.694C92.0674 177.084 91.6329 175.481 91.2127 173.886L90.7292 174.014C90.3059 172.407 89.8971 170.809 89.5027 169.219L89.988 169.099C89.586 167.478 89.1991 165.866 88.8273 164.263L88.3403 164.376C87.9638 162.754 87.6028 161.14 87.2573 159.537L87.7461 159.431C87.3953 157.803 87.0605 156.185 86.7419 154.577L86.2514 154.674C85.9263 153.034 85.618 151.405 85.3264 149.788L85.8185 149.699C85.5241 148.066 85.2468 146.444 84.9868 144.835L84.4932 144.915C84.2253 143.257 83.9757 141.612 83.7444 139.98L84.2394 139.91C84.006 138.265 83.7914 136.633 83.5954 135.015L83.099 135.076C82.8975 133.412 82.7156 131.763 82.5537 130.13L83.0512 130.08C82.8862 128.416 82.7419 126.769 82.6183 125.139L82.1197 125.176C81.9939 123.517 81.8896 121.875 81.8067 120.251L82.306 120.226C82.2203 118.547 82.1577 116.888 82.1182 115.249L81.6184 115.261C81.578 113.584 81.5617 111.928 81.5697 110.294L82.0697 110.296C82.0779 108.632 82.1113 106.991 82.17 105.373L81.6704 105.355C81.7315 103.671 81.8201 102.012 81.9362 100.379L82.4349 100.414C82.5539 98.7403 82.7019 97.0944 82.8791 95.4778L82.3821 95.4233C82.565 93.7537 82.7789 92.1147 83.0239 90.5075L83.5182 90.5828C83.7698 88.9326 84.0542 87.3164 84.3717 85.7356L83.8815 85.6371C84.2137 83.9824 84.582 82.3657 84.9866 80.7884L85.4709 80.9126C85.8883 79.2849 86.3444 77.7 86.8392 76.1594L86.3632 76.0065C86.8793 74.3996 87.4375 72.8399 88.038 71.3291L88.5026 71.5138C89.1208 69.9584 89.7839 68.4559 90.492 67.0082L90.0428 66.7885C90.7826 65.2759 91.5715 63.8218 92.4098 62.4282L92.8382 62.6859C93.6964 61.2593 94.6062 59.8976 95.568 58.6028L95.1667 58.3047C96.1654 56.9602 97.2201 55.6865 98.3311 54.486L98.6981 54.8256C99.8173 53.6162 100.994 52.4825 102.228 51.427L101.903 51.047C103.162 49.9703 104.481 48.9735 105.859 48.0595L106.135 48.4762C106.817 48.0246 107.513 47.5934 108.223 47.183C108.934 46.7726 109.656 46.3855 110.387 46.0215L110.164 45.5738C111.645 44.837 113.168 44.1934 114.73 43.6415L114.896 44.1129C116.428 43.5718 117.998 43.1198 119.605 42.7552L119.494 42.2676C121.089 41.9056 122.72 41.6291 124.383 41.4364L124.441 41.9331C126.043 41.7475 127.677 41.6404 129.342 41.6105L129.333 41.1106C130.959 41.0814 132.613 41.1253 134.292 41.2409L134.258 41.7397C135.866 41.8504 137.499 42.0274 139.155 42.2697L139.227 41.775C140.836 42.0103 142.466 42.3068 144.115 42.6632L144.01 43.152C145.591 43.4938 147.192 43.8912 148.81 44.3435L148.945 43.862C150.513 44.3003 152.097 44.7897 153.696 45.3293L153.537 45.8031C155.064 46.3186 156.606 46.8803 158.161 47.4876L158.343 47.0218C159.857 47.6132 161.384 48.2475 162.921 48.9239L162.72 49.3816C164.209 50.0365 165.708 50.7312 167.217 51.4652L167.436 51.0155C168.908 51.7313 170.389 52.4842 171.878 53.2735L171.644 53.7153C173.074 54.4732 174.513 55.2649 175.958 56.0899L176.206 55.6557C177.625 56.4658 179.051 57.3079 180.483 58.1815L180.223 58.6083C181.622 59.4619 183.028 60.3457 184.439 61.2592L184.711 60.8395C186.075 61.7232 187.445 62.6345 188.819 63.5732L188.537 63.9861C189.887 64.9083 191.242 65.857 192.6 66.8318L192.892 66.4256C194.225 67.3825 195.562 68.3644 196.903 69.3709L196.602 69.7707C197.905 70.7491 199.211 71.751 200.519 72.7759L200.828 72.3823C202.125 73.3983 203.425 74.4369 204.726 75.4978L204.41 75.8854C205.674 76.9152 206.94 77.966 208.207 79.0377L208.53 78.6559C209.785 79.7171 211.042 80.7987 212.299 81.9002L211.97 82.2763C213.203 83.3561 214.437 84.4552 215.672 85.5734L216.008 85.2027C217.223 86.3036 218.44 87.423 219.657 88.5604L219.316 88.9257C220.518 90.049 221.72 91.1899 222.923 92.3484L223.27 91.9883C224.45 93.1248 225.629 94.2781 226.809 95.4479L226.457 95.8029C227.628 96.9642 228.799 98.1419 229.969 99.3357L230.326 98.9857C231.472 100.155 232.617 101.339 233.762 102.538L233.4 102.883C234.541 104.078 235.68 105.288 236.819 106.513L237.185 106.173C238.299 107.372 239.412 108.585 240.524 109.812L240.154 110.148C241.263 111.372 242.372 112.611 243.479 113.864L243.854 113.533C244.938 114.76 246.021 116 247.102 117.253L246.723 117.58C247.803 118.831 248.881 120.096 249.957 121.374L250.34 121.052C251.395 122.305 252.449 123.571 253.501 124.848L253.115 125.166C254.165 126.442 255.213 127.73 256.259 129.03L256.649 128.717C257.677 129.995 258.703 131.285 259.726 132.587L259.333 132.896C260.354 134.194 261.373 135.504 262.389 136.824L262.785 136.52C263.787 137.822 264.786 139.135 265.783 140.459L265.383 140.76C266.375 142.079 267.365 143.408 268.351 144.747L268.754 144.451C269.73 145.776 270.703 147.112 271.673 148.458L271.267 148.75C272.231 150.088 273.192 151.435 274.149 152.792L274.558 152.504C275.509 153.852 276.456 155.209 277.4 156.575L276.988 156.86C277.924 158.215 278.857 159.579 279.786 160.953L280.2 160.673C281.125 162.041 282.047 163.419 282.966 164.806L282.549 165.082C283.457 166.454 284.361 167.834 285.262 169.223L285.682 168.951C286.582 170.341 287.479 171.738 288.372 173.145L287.95 173.413C288.831 174.8 289.707 176.195 290.58 177.599L291.005 177.335C291.878 178.74 292.748 180.154 293.613 181.575L293.186 181.835C294.042 183.241 294.893 184.654 295.741 186.076L296.17 185.82Z" stroke="#F8F6EE" stroke-opacity="0.45" stroke-dasharray="5 5"/>
<path d="M396.506 384.336L381.796 377.572L367.085 384.336L373.85 369.625L367.085 354.915L381.796 361.679L396.506 354.915L389.742 369.625L396.506 384.336Z" fill="#F8F6EE"/>
</svg>
