<svg width="437" height="437" viewBox="0 0 437 437" fill="none" xmlns="http://www.w3.org/2000/svg">
<path d="M287.339 135.576C328.551 180.893 358.109 228.938 372.593 269.966C379.836 290.482 383.301 309.219 382.587 324.971C381.874 340.72 376.986 353.447 367.563 362.017C358.139 370.587 345.007 374.248 329.261 373.467C313.512 372.686 295.187 367.463 275.449 358.311C235.976 340.007 190.945 306.035 149.733 260.718C108.521 215.402 78.9637 167.357 64.4792 126.328C57.2366 105.812 53.7712 87.0753 54.4849 71.3232C55.1985 55.5738 60.086 42.8471 69.5094 34.2773C78.9328 25.7075 92.065 22.0467 107.811 22.8272C123.56 23.6078 141.885 28.8313 161.623 37.9834C201.096 56.2867 246.127 90.2596 287.339 135.576Z" stroke="#F8F6EE" stroke-opacity="0.38"/>
<path d="M296.17 144.82C297.016 146.239 297.857 147.666 298.694 149.1L298.263 149.352C298.681 150.069 299.098 150.787 299.514 151.508C299.93 152.228 300.343 152.948 300.755 153.669L301.189 153.421C302.013 154.863 302.828 156.305 303.634 157.747L303.197 157.991C304.005 159.436 304.803 160.88 305.592 162.324L306.031 162.084C306.83 163.544 307.619 165.004 308.399 166.463L307.958 166.698C308.737 168.156 309.507 169.613 310.268 171.07L310.712 170.838C311.483 172.314 312.245 173.79 312.998 175.265L312.553 175.492C313.305 176.966 314.049 178.44 314.782 179.912L315.23 179.689C315.972 181.178 316.704 182.665 317.427 184.151L316.977 184.37C317.702 185.861 318.418 187.351 319.123 188.839L319.575 188.625C320.287 190.126 320.988 191.625 321.68 193.122L321.226 193.331C321.923 194.839 322.609 196.345 323.286 197.849L323.741 197.643C324.422 199.156 325.092 200.667 325.752 202.175L325.294 202.375C325.961 203.899 326.617 205.421 327.263 206.939L327.723 206.744C328.372 208.269 329.01 209.791 329.637 211.309L329.174 211.5C329.81 213.04 330.435 214.577 331.049 216.111L331.513 215.925C332.128 217.462 332.732 218.995 333.325 220.525L332.859 220.706C333.462 222.262 334.054 223.813 334.634 225.361L335.102 225.185C335.683 226.735 336.252 228.281 336.809 229.821L336.339 229.992C336.908 231.562 337.464 233.128 338.008 234.689L338.48 234.525C339.025 236.088 339.557 237.646 340.078 239.198L339.604 239.357C340.135 240.942 340.654 242.521 341.159 244.095L341.635 243.942C342.142 245.518 342.636 247.089 343.117 248.653L342.639 248.8C343.131 250.399 343.609 251.991 344.074 253.576L344.554 253.435C345.02 255.026 345.473 256.61 345.912 258.187L345.431 258.321C345.879 259.931 346.314 261.534 346.734 263.129L347.218 263.002C347.641 264.608 348.05 266.206 348.444 267.796L347.959 267.917C348.361 269.537 348.748 271.149 349.119 272.752L349.606 272.639C349.983 274.262 350.344 275.875 350.689 277.479L350.201 277.584C350.551 279.212 350.886 280.831 351.205 282.438L351.695 282.341C352.02 283.981 352.329 285.61 352.62 287.228L352.128 287.316C352.423 288.95 352.7 290.571 352.96 292.181L353.454 292.101C353.721 293.759 353.971 295.403 354.202 297.035L353.707 297.105C353.941 298.751 354.155 300.382 354.351 302L354.848 301.94C355.049 303.604 355.231 305.253 355.393 306.886L354.896 306.935C355.06 308.599 355.205 310.246 355.328 311.877L355.827 311.839C355.953 313.498 356.057 315.14 356.14 316.764L355.641 316.79C355.726 318.468 355.789 320.127 355.829 321.766L356.328 321.754C356.369 323.431 356.385 325.087 356.377 326.721L355.877 326.719C355.869 328.383 355.835 330.024 355.777 331.642L356.276 331.66C356.215 333.345 356.127 335.004 356.011 336.636L355.512 336.601C355.393 338.275 355.245 339.921 355.068 341.537L355.565 341.592C355.382 343.262 355.168 344.901 354.923 346.508L354.429 346.432C354.177 348.083 353.893 349.699 353.575 351.28L354.065 351.378C353.733 353.033 353.365 354.65 352.96 356.227L352.476 356.103C352.058 357.73 351.602 359.315 351.108 360.856L351.584 361.009C351.067 362.616 350.509 364.175 349.909 365.686L349.444 365.501C348.826 367.057 348.163 368.559 347.455 370.007L347.904 370.227C347.164 371.739 346.375 373.193 345.537 374.587L345.109 374.329C344.25 375.756 343.341 377.118 342.379 378.412L342.78 378.711C341.781 380.055 340.727 381.329 339.616 382.529L339.249 382.19C338.129 383.399 336.953 384.533 335.719 385.588L336.044 385.968C334.785 387.045 333.466 388.042 332.088 388.956L331.811 388.539C331.13 388.991 330.434 389.422 329.723 389.832C329.013 390.243 328.291 390.63 327.56 390.994L327.782 391.441C326.301 392.178 324.779 392.822 323.217 393.374L323.05 392.902C321.519 393.443 319.949 393.896 318.342 394.26L318.453 394.748C316.858 395.11 315.227 395.386 313.564 395.579L313.506 395.082C311.904 395.268 310.27 395.375 308.605 395.405L308.614 395.905C306.988 395.934 305.334 395.89 303.654 395.774L303.689 395.276C302.081 395.165 300.448 394.988 298.792 394.746L298.72 395.24C297.111 395.005 295.481 394.708 293.832 394.352L293.937 393.863C292.355 393.522 290.755 393.124 289.137 392.672L289.002 393.153C287.434 392.715 285.849 392.226 284.25 391.686L284.41 391.212C282.882 390.697 281.34 390.135 279.786 389.528L279.604 389.993C278.089 389.402 276.563 388.768 275.025 388.091L275.227 387.634C273.738 386.979 272.239 386.284 270.73 385.55L270.511 386C269.039 385.284 267.558 384.531 266.068 383.742L266.302 383.3C264.872 382.542 263.434 381.75 261.989 380.925L261.741 381.36C260.322 380.549 258.896 379.707 257.464 378.834L257.724 378.407C256.324 377.553 254.919 376.67 253.508 375.756L253.236 376.176C251.871 375.292 250.502 374.381 249.127 373.442L249.409 373.029C248.059 372.107 246.705 371.158 245.346 370.183L245.055 370.59C243.721 369.633 242.384 368.651 241.044 367.644L241.344 367.245C240.042 366.266 238.736 365.264 237.427 364.239L237.119 364.633C235.822 363.617 234.522 362.578 233.22 361.517L233.536 361.13C232.273 360.1 231.007 359.049 229.74 357.978L229.417 358.359C228.162 357.298 226.905 356.217 225.647 355.115L225.977 354.739C224.744 353.659 223.51 352.56 222.275 351.442L221.939 351.813C220.723 350.712 219.507 349.592 218.289 348.455L218.631 348.09C217.429 346.966 216.226 345.825 215.024 344.667L214.677 345.027C213.497 343.89 212.317 342.737 211.138 341.567L211.49 341.212C210.319 340.051 209.148 338.873 207.978 337.68L207.621 338.03C206.475 336.861 205.329 335.676 204.185 334.477L204.546 334.132C203.406 332.937 202.267 331.727 201.128 330.502L200.762 330.842C199.648 329.643 198.535 328.43 197.423 327.203L197.793 326.868C196.683 325.643 195.575 324.404 194.468 323.151L194.093 323.483C193.009 322.256 191.926 321.015 190.845 319.762L191.224 319.436C190.144 318.184 189.066 316.919 187.989 315.641L187.607 315.964C186.551 314.71 185.497 313.445 184.446 312.167L184.832 311.849C183.782 310.573 182.734 309.285 181.688 307.985L181.298 308.298C180.27 307.02 179.244 305.73 178.22 304.428L178.613 304.119C177.592 302.821 176.574 301.512 175.558 300.191L175.161 300.496C174.16 299.193 173.161 297.88 172.164 296.556L172.564 296.255C171.571 294.937 170.582 293.608 169.595 292.268L169.193 292.564C168.217 291.239 167.244 289.903 166.274 288.557L166.68 288.265C165.716 286.928 164.755 285.58 163.797 284.223L163.389 284.511C162.438 283.164 161.491 281.807 160.547 280.44L160.958 280.156C160.022 278.801 159.09 277.436 158.161 276.063L157.747 276.343C156.821 274.974 155.899 273.596 154.981 272.209L155.398 271.933C154.49 270.561 153.585 269.181 152.685 267.792L152.265 268.064C151.364 266.675 150.468 265.277 149.575 263.871L149.997 263.603C149.116 262.215 148.239 260.82 147.367 259.416L146.942 259.68C146.068 258.275 145.199 256.862 144.334 255.44L144.761 255.18C143.905 253.774 143.053 252.361 142.206 250.939L141.777 251.195C140.931 249.776 140.089 248.35 139.252 246.915L139.684 246.663C139.266 245.946 138.849 245.228 138.433 244.508C138.017 243.787 137.603 243.067 137.192 242.347L136.758 242.595C135.934 241.152 135.119 239.71 134.313 238.268L134.75 238.024C133.942 236.58 133.144 235.135 132.354 233.692L131.916 233.931C131.117 232.471 130.328 231.012 129.548 229.553L129.989 229.317C129.209 227.859 128.439 226.402 127.678 224.946L127.235 225.177C126.464 223.701 125.701 222.225 124.949 220.751L125.394 220.523C124.641 219.049 123.898 217.575 123.164 216.103L122.717 216.326C121.975 214.837 121.243 213.35 120.52 211.864L120.97 211.645C120.245 210.154 119.529 208.664 118.824 207.176L118.372 207.39C117.66 205.89 116.959 204.391 116.267 202.894L116.721 202.684C116.024 201.176 115.338 199.67 114.661 198.167L114.205 198.372C113.525 196.859 112.855 195.349 112.195 193.841L112.653 193.64C111.986 192.116 111.329 190.594 110.684 189.076L110.223 189.272C109.575 187.747 108.937 186.225 108.31 184.706L108.772 184.515C108.137 182.975 107.512 181.438 106.898 179.905L106.434 180.091C105.819 178.553 105.214 177.02 104.621 175.49L105.088 175.309C104.484 173.754 103.893 172.202 103.313 170.654L102.845 170.83C102.264 169.28 101.695 167.735 101.137 166.194L101.608 166.024C101.039 164.453 100.483 162.887 99.9388 161.326L99.4666 161.49C98.9219 159.928 98.3893 158.37 97.8689 156.817L98.3429 156.658C97.8117 155.073 97.2931 153.494 96.7873 151.92L96.3113 152.073C95.8046 150.497 95.3106 148.926 94.8295 147.362L95.3074 147.215C94.8158 145.617 94.3376 144.025 93.8729 142.44L93.3931 142.58C92.9266 140.989 92.4737 139.405 92.0344 137.829L92.5161 137.694C92.0674 136.084 91.6329 134.481 91.2127 132.886L90.7292 133.014C90.3059 131.407 89.8971 129.809 89.5027 128.219L89.988 128.099C89.586 126.478 89.1991 124.866 88.8273 123.263L88.3403 123.376C87.9638 121.754 87.6028 120.14 87.2573 118.537L87.7461 118.431C87.3953 116.803 87.0605 115.185 86.7419 113.577L86.2514 113.674C85.9263 112.034 85.618 110.405 85.3264 108.788L85.8185 108.699C85.5241 107.066 85.2468 105.444 84.9868 103.835L84.4932 103.915C84.2253 102.257 83.9757 100.612 83.7444 98.9805L84.2394 98.9103C84.006 97.2646 83.7914 95.6328 83.5954 94.0155L83.099 94.0756C82.8975 92.4116 82.7156 90.7627 82.5537 89.1295L83.0512 89.0802C82.8862 87.4163 82.7419 85.7689 82.6183 84.1386L82.1197 84.1764C81.9939 82.5169 81.8896 80.875 81.8067 79.2512L82.306 79.2257C82.2203 77.547 82.1577 75.8879 82.1182 74.2492L81.6184 74.2612C81.578 72.5841 81.5617 70.9281 81.5697 69.2939L82.0697 69.2964C82.0779 67.6321 82.1113 65.9909 82.17 64.3734L81.6704 64.3553C81.7315 62.6707 81.8201 61.0115 81.9362 59.3789L82.4349 59.4143C82.5539 57.7403 82.7019 56.0944 82.8791 54.4778L82.3821 54.4233C82.565 52.7537 82.7789 51.1147 83.0239 49.5075L83.5182 49.5828C83.7698 47.9326 84.0542 46.3164 84.3717 44.7356L83.8815 44.6371C84.2137 42.9824 84.582 41.3657 84.9866 39.7884L85.4709 39.9126C85.8883 38.2849 86.3444 36.7 86.8392 35.1594L86.3632 35.0065C86.8793 33.3996 87.4375 31.8399 88.038 30.3291L88.5026 30.5138C89.1208 28.9584 89.7839 27.4559 90.492 26.0082L90.0428 25.7885C90.7826 24.2759 91.5715 22.8218 92.4098 21.4282L92.8382 21.6859C93.6964 20.2593 94.6062 18.8976 95.568 17.6028L95.1667 17.3047C96.1654 15.9602 97.2201 14.6865 98.3311 13.486L98.6981 13.8256C99.8173 12.6162 100.994 11.4825 102.228 10.427L101.903 10.047C103.162 8.97029 104.481 7.97353 105.859 7.05945L106.135 7.47618C106.817 7.02458 107.513 6.59341 108.223 6.18301C108.934 5.77264 109.656 5.38553 110.387 5.02149L110.164 4.57385C111.645 3.83695 113.168 3.19338 114.73 2.64148L114.896 3.11291C116.428 2.57184 117.998 2.11976 119.605 1.75516L119.494 1.26756C121.089 0.905645 122.72 0.629111 124.383 0.436413L124.441 0.933096C126.043 0.747521 127.677 0.640413 129.342 0.610545L129.333 0.110623C130.959 0.0814448 132.613 0.125301 134.292 0.240911L134.258 0.739735C135.866 0.85039 137.499 1.02738 139.155 1.26969L139.227 0.774954C140.836 1.01032 142.466 1.30676 144.115 1.66324L144.01 2.15196C145.591 2.49375 147.192 2.89123 148.81 3.34354L148.945 2.86199C150.513 3.30032 152.097 3.78972 153.696 4.32932L153.537 4.80308C155.064 5.3186 156.606 5.88033 158.161 6.48758L158.343 6.02183C159.857 6.61325 161.384 7.24749 162.921 7.9239L162.72 8.38157C164.209 9.03648 165.708 9.73121 167.217 10.4652L167.436 10.0155C168.908 10.7313 170.389 11.4842 171.878 12.2735L171.644 12.7153C173.074 13.4732 174.513 14.2649 175.958 15.0899L176.206 14.6557C177.625 15.4658 179.051 16.3079 180.483 17.1815L180.223 17.6083C181.622 18.4619 183.028 19.3457 184.439 20.2592L184.711 19.8395C186.075 20.7232 187.445 21.6345 188.819 22.5732L188.537 22.9861C189.887 23.9083 191.242 24.857 192.6 25.8318L192.892 25.4256C194.225 26.3825 195.562 27.3644 196.903 28.3709L196.602 28.7707C197.905 29.7491 199.211 30.751 200.519 31.7759L200.828 31.3823C202.125 32.3983 203.425 33.4369 204.726 34.4978L204.41 34.8854C205.674 35.9152 206.94 36.966 208.207 38.0377L208.53 37.6559C209.785 38.7171 211.042 39.7987 212.299 40.9002L211.97 41.2763C213.203 42.3561 214.437 43.4552 215.672 44.5734L216.008 44.2027C217.223 45.3036 218.44 46.423 219.657 47.5604L219.316 47.9257C220.518 49.049 221.72 50.1899 222.923 51.3484L223.27 50.9883C224.45 52.1248 225.629 53.2781 226.809 54.4479L226.457 54.8029C227.628 55.9642 228.799 57.1419 229.969 58.3357L230.326 57.9857C231.472 59.1545 232.617 60.3388 233.762 61.5383L233.4 61.8834C234.541 63.0784 235.68 64.2884 236.819 65.5134L237.185 65.173C238.299 66.3719 239.412 67.5849 240.524 68.812L240.154 69.1477C241.263 70.3725 242.372 71.6112 243.479 72.8638L243.854 72.5327C244.938 73.7597 246.021 74.9998 247.102 76.2531L246.723 76.5797C247.803 77.8314 248.881 79.0962 249.957 80.3738L250.34 80.0517C251.395 81.3049 252.449 82.5705 253.501 83.8483L253.115 84.1661C254.165 85.4421 255.213 86.7303 256.259 88.0305L256.649 87.7171C257.677 88.9955 258.703 90.2855 259.726 91.5868L259.333 91.8959C260.354 93.1941 261.373 94.5037 262.389 95.8244L262.785 95.5196C263.787 96.822 264.786 98.1353 265.783 99.4593L265.383 99.76C266.375 101.079 267.365 102.408 268.351 103.747L268.754 103.451C269.73 104.776 270.703 106.112 271.673 107.458L271.267 107.75C272.231 109.088 273.192 110.435 274.149 111.792L274.558 111.504C275.509 112.852 276.456 114.209 277.4 115.575L276.988 115.86C277.924 117.215 278.857 118.579 279.786 119.953L280.2 119.673C281.125 121.041 282.047 122.419 282.966 123.806L282.549 124.082C283.457 125.454 284.361 126.834 285.262 128.223L285.682 127.951C286.582 129.341 287.479 130.738 288.372 132.145L287.95 132.413C288.831 133.8 289.707 135.195 290.58 136.599L291.005 136.335C291.878 137.74 292.748 139.154 293.613 140.575L293.186 140.835C294.042 142.241 294.893 143.654 295.741 145.076L296.17 144.82Z" stroke="#F8F6EE" stroke-opacity="0.45" stroke-dasharray="5 5"/>
<path d="M396.506 343.336L381.796 336.572L367.085 343.336L373.85 328.625L367.085 313.915L381.796 320.679L396.506 313.915L389.742 328.625L396.506 343.336Z" fill="#F8F6EE"/>
</svg>
