<svg width="419" height="467" viewBox="0 0 419 467" fill="none" xmlns="http://www.w3.org/2000/svg">
<path d="M93.3129 222.649C126.419 171.113 165.177 130.128 201.059 105.518C219 93.2124 236.202 85.0155 251.602 81.628C267 78.241 280.558 79.668 291.275 86.5523C301.991 93.4366 308.926 105.174 312.248 120.585C315.57 136 315.267 155.052 311.535 176.486C304.072 219.352 282.912 271.642 249.806 323.178C216.7 374.714 177.942 415.699 142.06 440.309C124.118 452.615 106.917 460.812 91.5165 464.199C76.119 467.586 62.561 466.159 51.8443 459.275C41.1275 452.391 34.1925 440.653 30.871 425.242C27.5489 409.827 27.8516 390.775 31.5834 369.341C39.0466 326.475 60.2069 274.186 93.3129 222.649Z" stroke="#F8F6EE" stroke-opacity="0.38"/>
<path d="M99.956 211.727C101.108 210.542 102.268 209.36 103.437 208.18L103.792 208.532C104.376 207.943 104.962 207.354 105.551 206.766C106.139 206.178 106.727 205.592 107.317 205.008L106.965 204.653C108.145 203.484 109.327 202.323 110.511 201.172L110.86 201.53C112.046 200.376 113.234 199.231 114.425 198.095L114.079 197.733C115.283 196.584 116.489 195.444 117.696 194.313L118.038 194.678C119.245 193.548 120.453 192.427 121.662 191.315L121.324 190.947C122.55 189.819 123.778 188.701 125.008 187.593L125.343 187.964C126.572 186.855 127.803 185.756 129.035 184.666L128.704 184.292C129.95 183.19 131.197 182.097 132.446 181.015L132.773 181.392C134.026 180.306 135.28 179.229 136.535 178.163L136.211 177.782C137.476 176.706 138.743 175.64 140.01 174.585L140.33 174.969C141.606 173.906 142.883 172.853 144.16 171.81L143.844 171.423C145.129 170.374 146.414 169.336 147.7 168.308L148.012 168.699C149.312 167.66 150.612 166.632 151.911 165.615L151.603 165.222C152.908 164.201 154.213 163.191 155.518 162.192L155.822 162.589C157.145 161.576 158.468 160.575 159.79 159.585L159.491 159.185C160.816 158.193 162.141 157.212 163.465 156.243L163.76 156.647C165.107 155.662 166.453 154.689 167.798 153.728L167.507 153.321C168.853 152.359 170.199 151.409 171.543 150.472L171.829 150.882C173.199 149.927 174.568 148.984 175.935 148.054L175.654 147.641C177.022 146.71 178.389 145.793 179.754 144.888L180.03 145.305C181.424 144.381 182.815 143.472 184.204 142.576L183.933 142.156C185.325 141.258 186.714 140.375 188.101 139.505L188.366 139.929C189.783 139.04 191.197 138.166 192.608 137.307L192.347 136.88C193.764 136.018 195.176 135.17 196.586 134.338L196.84 134.768C198.28 133.918 199.715 133.084 201.147 132.265L200.899 131.831C202.341 131.006 203.779 130.198 205.213 129.405L205.455 129.843C206.916 129.035 208.373 128.244 209.825 127.47L209.589 127.029C211.059 126.245 212.524 125.479 213.984 124.73L214.212 125.175C215.694 124.415 217.171 123.673 218.641 122.949L218.42 122.5C219.92 121.762 221.414 121.042 222.901 120.342L223.114 120.794C224.616 120.087 226.11 119.4 227.597 118.732L227.392 118.276C228.924 117.588 230.449 116.921 231.965 116.276L232.16 116.736C233.69 116.084 235.21 115.455 236.722 114.847L236.535 114.383C238.09 113.757 239.636 113.155 241.172 112.576L241.348 113.044C242.913 112.454 244.466 111.888 246.009 111.347L245.844 110.875C247.414 110.324 248.973 109.798 250.52 109.298L250.674 109.773C252.273 109.256 253.86 108.766 255.432 108.304L255.291 107.824C256.901 107.351 258.496 106.907 260.077 106.492L260.204 106.975C261.813 106.552 263.407 106.16 264.985 105.798L264.873 105.311C266.516 104.934 268.142 104.59 269.749 104.279L269.844 104.77C271.491 104.452 273.119 104.169 274.727 103.922L274.651 103.428C276.311 103.172 277.949 102.955 279.565 102.775L279.62 103.272C281.28 103.088 282.914 102.945 284.523 102.842L284.492 102.343C286.176 102.236 287.833 102.173 289.461 102.155L289.467 102.655C291.147 102.637 292.796 102.668 294.412 102.747L294.436 102.248C296.122 102.33 297.773 102.466 299.388 102.655L299.33 103.151C300.992 103.346 302.615 103.597 304.197 103.907L304.293 103.416C305.945 103.739 307.554 104.125 309.117 104.574L308.979 105.054C310.579 105.514 312.13 106.04 313.629 106.634L313.814 106.169C315.371 106.786 316.874 107.475 318.321 108.238L318.088 108.68C319.546 109.448 320.946 110.291 322.285 111.21L322.567 110.798C323.933 111.735 325.237 112.751 326.477 113.846L326.146 114.221C326.759 114.762 327.355 115.322 327.936 115.903C328.516 116.483 329.077 117.08 329.618 117.692L329.992 117.361C331.087 118.601 332.103 119.905 333.04 121.271L332.628 121.554C333.547 122.893 334.39 124.292 335.158 125.75L335.601 125.517C336.363 126.964 337.052 128.468 337.669 130.025L337.204 130.209C337.798 131.708 338.324 133.259 338.784 134.859L339.265 134.721C339.714 136.284 340.099 137.893 340.422 139.546L339.932 139.642C340.241 141.223 340.493 142.846 340.687 144.509L341.184 144.45C341.373 146.065 341.508 147.716 341.591 149.402L341.091 149.426C341.171 151.043 341.201 152.692 341.183 154.372L341.683 154.377C341.665 156.005 341.603 157.662 341.495 159.347L340.996 159.315C340.894 160.924 340.75 162.559 340.566 164.218L341.063 164.273C340.884 165.889 340.666 167.527 340.411 169.188L339.917 169.111C339.669 170.719 339.386 172.347 339.068 173.995L339.559 174.09C339.249 175.697 338.905 177.322 338.528 178.965L338.04 178.853C337.679 180.431 337.286 182.025 336.863 183.635L337.347 183.762C336.932 185.342 336.487 186.938 336.014 188.547L335.534 188.406C335.072 189.979 334.582 191.565 334.065 193.164L334.541 193.318C334.04 194.865 333.515 196.424 332.964 197.995L332.492 197.829C331.951 199.372 331.385 200.926 330.795 202.49L331.263 202.667C330.683 204.202 330.081 205.748 329.456 207.303L328.992 207.117C328.384 208.628 327.754 210.149 327.103 211.678L327.563 211.874C326.917 213.39 326.25 214.914 325.562 216.446L325.106 216.241C324.439 217.728 323.751 219.223 323.044 220.724L323.496 220.937C322.796 222.424 322.077 223.918 321.338 225.418L320.89 225.197C320.166 226.667 319.424 228.144 318.663 229.626L319.108 229.855C318.359 231.314 317.593 232.779 316.809 234.249L316.368 234.014C315.594 235.466 314.803 236.922 313.996 238.384L314.433 238.626C313.641 240.059 312.832 241.497 312.008 242.94L311.574 242.691C310.755 244.123 309.92 245.559 309.07 246.998L309.501 247.253C308.668 248.662 307.821 250.075 306.958 251.491L306.531 251.231C305.672 252.642 304.798 254.055 303.91 255.472L304.333 255.738C303.464 257.124 302.58 258.514 301.683 259.905L301.262 259.634C300.367 261.023 299.457 262.414 298.534 263.808L298.95 264.084C298.046 265.449 297.128 266.816 296.198 268.185L295.784 267.903C294.854 269.27 293.912 270.639 292.956 272.009L293.366 272.295C292.429 273.639 291.479 274.985 290.517 276.331L290.11 276.041C289.15 277.385 288.177 278.731 287.191 280.078L287.595 280.373C286.626 281.697 285.646 283.022 284.654 284.348L284.253 284.048C283.264 285.37 282.262 286.693 281.25 288.016L281.647 288.32C280.648 289.625 279.638 290.93 278.617 292.235L278.223 291.927C277.206 293.227 276.179 294.526 275.14 295.826L275.53 296.138C274.503 297.424 273.464 298.71 272.415 299.995L272.028 299.679C270.986 300.956 269.933 302.233 268.87 303.509L269.254 303.829C268.198 305.096 267.133 306.362 266.057 307.628L265.676 307.304C264.609 308.558 263.533 309.812 262.446 311.065L262.824 311.393C261.741 312.641 260.649 313.888 259.547 315.134L259.172 314.803C258.083 316.035 256.983 317.266 255.875 318.496L256.246 318.83C255.137 320.06 254.019 321.288 252.892 322.514L252.524 322.176C251.412 323.386 250.291 324.594 249.161 325.8L249.525 326.142C248.394 327.349 247.254 328.555 246.105 329.759L245.743 329.414C244.607 330.604 243.462 331.792 242.308 332.979L242.667 333.327C241.515 334.511 240.355 335.694 239.186 336.873L238.831 336.522C238.247 337.111 237.661 337.7 237.072 338.288C236.484 338.876 235.895 339.462 235.306 340.046L235.658 340.401C234.478 341.57 233.296 342.73 232.112 343.882L231.763 343.524C230.577 344.678 229.389 345.823 228.198 346.959L228.543 347.321C227.34 348.47 226.134 349.61 224.927 350.741L224.585 350.376C223.378 351.506 222.17 352.627 220.961 353.739L221.299 354.107C220.073 355.235 218.844 356.353 217.615 357.461L217.28 357.09C216.051 358.199 214.82 359.298 213.587 360.388L213.919 360.762C212.673 361.864 211.425 362.957 210.177 364.039L209.85 363.661C208.597 364.748 207.343 365.825 206.088 366.891L206.412 367.272C205.147 368.348 203.88 369.414 202.613 370.469L202.293 370.085C201.017 371.148 199.74 372.201 198.463 373.244L198.779 373.631C197.494 374.68 196.209 375.718 194.923 376.746L194.611 376.355C193.311 377.394 192.011 378.422 190.712 379.439L191.02 379.832C189.715 380.853 188.409 381.863 187.105 382.862L186.801 382.465C185.478 383.478 184.155 384.479 182.833 385.469L183.132 385.869C181.807 386.861 180.482 387.842 179.158 388.81L178.863 388.407C177.516 389.392 176.17 390.365 174.825 391.326L175.116 391.733C173.769 392.695 172.424 393.644 171.08 394.582L170.794 394.172C169.424 395.127 168.055 396.07 166.688 397L166.969 397.413C165.6 398.344 164.234 399.261 162.869 400.166L162.592 399.749C161.199 400.672 159.808 401.582 158.419 402.478L158.69 402.898C157.298 403.796 155.909 404.679 154.522 405.549L154.257 405.125C152.84 406.014 151.426 406.888 150.015 407.747L150.275 408.174C148.859 409.036 147.447 409.884 146.037 410.716L145.783 410.286C144.343 411.136 142.908 411.97 141.476 412.789L141.724 413.223C140.282 414.048 138.844 414.856 137.41 415.649L137.168 415.211C135.707 416.019 134.25 416.81 132.798 417.584L133.034 418.025C131.564 418.808 130.099 419.575 128.639 420.323L128.411 419.879C126.929 420.639 125.452 421.381 123.982 422.105L124.203 422.554C122.702 423.292 121.209 424.012 119.722 424.712L119.509 424.26C118.007 424.967 116.513 425.654 115.026 426.322L115.231 426.778C113.699 427.466 112.174 428.133 110.658 428.778L110.462 428.318C108.933 428.97 107.413 429.599 105.901 430.207L106.088 430.671C104.533 431.296 102.987 431.899 101.451 432.478L101.275 432.01C99.7104 432.6 98.1565 433.166 96.6137 433.707L96.7792 434.179C95.2089 434.73 93.6499 435.256 92.1029 435.756L91.9491 435.28C90.3497 435.798 88.7633 436.288 87.1907 436.75L87.3317 437.23C85.7222 437.703 84.1268 438.147 82.5463 438.562L82.4192 438.079C80.8095 438.502 79.2156 438.894 77.638 439.256L77.7498 439.743C76.1068 440.12 74.4813 440.464 72.8742 440.775L72.7794 440.284C71.1315 440.602 69.5035 440.885 67.8961 441.132L67.9721 441.626C66.312 441.882 64.6735 442.099 63.0576 442.279L63.0025 441.782C61.3433 441.966 59.7086 442.109 58.0995 442.212L58.1313 442.711C56.447 442.818 54.79 442.881 53.1617 442.898L53.1563 442.398C51.4761 442.417 49.8272 442.386 48.2109 442.307L48.1865 442.806C46.5008 442.724 44.8498 442.588 43.235 442.399L43.2931 441.903C41.6308 441.708 40.0079 441.456 38.4262 441.147L38.3302 441.638C36.6777 441.315 35.069 440.929 33.5059 440.48L33.644 440C32.0439 439.54 30.493 439.013 28.9934 438.42L28.8093 438.884C27.2522 438.268 25.7489 437.579 24.3018 436.816L24.5348 436.374C23.077 435.606 21.6774 434.763 20.3384 433.844L20.0554 434.256C18.6896 433.319 17.3855 432.303 16.1458 431.208L16.4768 430.833C15.8643 430.292 15.2677 429.731 14.6873 429.151C14.107 428.571 13.5463 427.974 13.0054 427.362L12.6306 427.693C11.5355 426.453 10.5198 425.149 9.58249 423.783L9.99474 423.5C9.0758 422.161 8.23275 420.762 7.46466 419.304L7.02231 419.537C6.25987 418.09 5.57077 416.586 4.95405 415.029L5.41891 414.845C4.82498 413.346 4.29855 411.795 3.83889 410.195L3.35832 410.333C2.9093 408.77 2.52363 407.161 2.20053 405.508L2.69124 405.412C2.38199 403.831 2.13037 402.208 1.93579 400.545L1.43917 400.604C1.25017 398.989 1.11468 397.338 1.03206 395.652L1.53146 395.628C1.45224 394.011 1.4219 392.362 1.43996 390.682L0.939986 390.677C0.957476 389.049 1.02015 387.392 1.12748 385.707L1.62647 385.739C1.729 384.13 1.87254 382.495 2.05664 380.836L1.55969 380.781C1.739 379.165 1.95658 377.527 2.21201 375.866L2.7062 375.942C2.95352 374.335 3.23651 372.707 3.55481 371.059L3.0639 370.964C3.37434 369.357 3.7182 367.732 4.09512 366.089L4.58247 366.2C4.94436 364.623 5.33689 363.029 5.75975 361.419L5.27616 361.292C5.69137 359.712 6.13566 358.116 6.60876 356.507L7.08847 356.648C7.55074 355.075 8.04063 353.489 8.55789 351.889L8.08215 351.736C8.58246 350.189 9.10824 348.63 9.65926 347.059L10.1311 347.225C10.6724 345.682 11.2382 344.128 11.8282 342.564L11.3604 342.387C11.9395 340.852 12.5419 339.306 13.1673 337.751L13.6312 337.937C14.2391 336.426 14.8688 334.905 15.5201 333.376L15.0601 333.18C15.7058 331.664 16.3726 330.14 17.0605 328.608L17.5166 328.813C18.1843 327.326 18.8717 325.831 19.5789 324.33L19.1265 324.117C19.8268 322.63 20.5462 321.136 21.2847 319.636L21.7333 319.857C22.4572 318.386 23.1994 316.91 23.9598 315.428L23.5149 315.199C24.2636 313.74 25.0299 312.275 25.8135 310.805L26.2548 311.04C27.0287 309.588 27.8196 308.132 28.6273 306.67L28.1897 306.428C28.9821 304.995 29.7907 303.557 30.6154 302.114L31.0494 302.363C31.8681 300.931 32.7026 299.495 33.5528 298.056L33.1223 297.801C33.9547 296.392 34.8022 294.979 35.6646 293.563L36.0916 293.823C36.9507 292.412 37.8246 290.998 38.7132 289.582L38.2896 289.316C39.1592 287.93 40.0428 286.54 40.9403 285.149L41.3605 285.42C42.2563 284.031 43.1659 282.64 44.0893 281.246L43.6725 280.97C44.577 279.605 45.4947 278.238 46.4254 276.869L46.8389 277.151C47.7684 275.784 48.7111 274.415 49.6666 273.045L49.2565 272.759C50.1939 271.415 51.1436 270.069 52.1057 268.723L52.5125 269.013C53.4732 267.668 54.4462 266.323 55.4314 264.976L55.0279 264.681C55.9966 263.357 56.9771 262.032 57.9692 260.706L58.3695 261.006C59.3592 259.684 60.3605 258.361 61.3733 257.038L60.9763 256.734C61.975 255.429 62.9849 254.124 64.006 252.819L64.3998 253.127C65.4166 251.827 66.4444 250.528 67.4831 249.228L67.0925 248.916C68.1202 247.63 69.1586 246.344 70.2074 245.059L70.5948 245.375C71.6372 244.098 72.69 242.821 73.7532 241.545L73.3691 241.225C74.4246 239.958 75.4904 238.692 76.5662 237.426L76.9472 237.75C78.0138 236.496 79.0904 235.242 80.1769 233.989L79.7991 233.661C80.8817 232.413 81.974 231.166 83.076 229.92L83.4505 230.251C84.5403 229.019 85.6396 227.788 86.7483 226.558L86.377 226.224C87.4856 224.994 88.6037 223.766 89.731 222.54L90.0991 222.878C91.2112 221.668 92.3323 220.46 93.4623 219.254L93.0974 218.912C94.2286 217.704 95.3687 216.499 96.5178 215.295L96.8794 215.64C98.0157 214.45 99.1608 213.262 100.314 212.075L99.956 211.727Z" stroke="#F8F6EE" stroke-opacity="0.45" stroke-dasharray="5 5"/>
<path d="M228.297 105.788L227.987 89.5998L215.497 79.2977L231.685 78.9877L241.987 66.4971L242.297 82.6852L254.788 92.9874L238.6 93.2973L228.297 105.788Z" fill="#F8F6EE"/>
</svg>
