<svg width="251" height="251" viewBox="0 0 251 251" fill="none" xmlns="http://www.w3.org/2000/svg">
<path d="M164.695 164.695C132.016 197.374 97.994 222.493 69.4176 236.693C55.127 243.794 42.2243 248.153 31.5483 249.375C20.8656 250.598 12.4998 248.674 7.15752 243.332C1.81526 237.99 -0.108108 229.624 1.11492 218.941C2.33717 208.265 6.69519 195.363 13.7967 181.072C27.9972 152.496 53.1156 118.473 85.7945 85.7945C118.473 53.1156 152.496 27.9971 181.072 13.7966C195.363 6.69513 208.265 2.33713 218.941 1.11486C229.624 -0.108156 237.99 1.81521 243.332 7.15746C248.674 12.4997 250.598 20.8656 249.375 31.5482C248.153 42.2242 243.795 55.127 236.693 69.4176C222.493 97.9939 197.374 132.016 164.695 164.695Z" stroke="#365166" stroke-opacity="0.1"/>
</svg>
