<svg width="59" height="59" viewBox="0 0 59 59" fill="none" xmlns="http://www.w3.org/2000/svg">
<rect width="59" height="59" rx="20" fill="#F0FAFF"/>
<path d="M36.357 46.2604L34.2783 46.1571C30.9951 45.9127 27.6969 45.9478 24.4197 46.2625C23.3005 46.3741 22.1709 46.2378 21.1103 45.8637C20.2236 45.6044 19.4228 45.1118 18.7914 44.4368C18.1602 43.7618 17.7224 42.9298 17.523 42.0274C17.0044 39.94 17.693 37.2313 19.9923 35.978C22.2921 34.7247 23.8746 32.7815 25.2267 30.6079C25.683 29.778 26.2716 29.0281 26.9694 28.3878C27.5081 27.9064 28.1812 27.6013 28.8981 27.514C29.6151 27.4262 30.3419 27.56 30.981 27.8974C31.8043 28.375 32.5262 29.0094 33.1056 29.7648C33.8911 30.7992 34.6778 31.8385 35.4743 32.8699L35.4747 32.8698C36.6475 34.2956 37.9738 35.5882 39.4293 36.7247C40.5831 37.6824 41.3563 39.0212 41.6093 40.4994C41.8107 41.5338 41.6438 42.6056 41.1381 43.5294C40.6321 44.4537 39.8194 45.172 38.84 45.5601C38.4702 45.7195 38.09 45.8523 37.7019 45.9584C37.3055 46.0703 36.9096 46.1413 36.357 46.2604L36.357 46.2604Z" fill="#FF7A2F"/>
<path d="M22.3526 15.2269C24.7183 14.7671 27.1507 17.0439 27.7859 20.3119C28.4211 23.5798 27.0187 26.6018 24.6532 27.0616C22.2879 27.5213 19.8556 25.2449 19.22 21.977C18.5847 18.7087 19.9875 15.6867 22.3526 15.2269Z" fill="#FF7A2F"/>
<path d="M20.0833 29.1495C20.9664 32.0803 19.9624 34.9748 17.8401 35.6143C15.7179 36.2538 13.2815 34.3962 12.3984 31.465C11.5152 28.5342 12.5196 25.6396 14.6415 25.0002C16.7637 24.3607 19.2001 26.2183 20.0833 29.1495Z" fill="#FF7A2F"/>
<path d="M36.4249 14.9194C38.7902 15.3804 40.1912 18.4033 39.5541 21.6709C38.9171 24.9386 36.4832 27.2138 34.1182 26.7531C31.7533 26.2919 30.3522 23.2691 30.989 20.0016C31.626 16.7339 34.0599 14.4583 36.4249 14.9194Z" fill="#FF7A2F"/>
<path d="M44.1334 24.6839C46.2562 25.3213 47.2638 28.2146 46.3835 31.1464C45.5032 34.0786 43.069 35.9386 40.9462 35.3012C38.8234 34.6639 37.8161 31.7704 38.6961 28.8387C39.5764 25.9069 42.0106 24.0466 44.1334 24.6839Z" fill="#FF7A2F"/>
</svg>
