<svg width="51" height="45" viewBox="0 0 51 45" fill="none" xmlns="http://www.w3.org/2000/svg">
<path d="M50.3454 22.6787C50.3454 34.8289 41.8388 44.6787 31.3454 44.6787C20.852 44.6787 -10.1498 18.4225 3.34537 5.17867C11.2498 -2.57859 20.852 0.678673 31.3454 0.678673C41.8388 0.678673 50.3454 10.5284 50.3454 22.6787Z" fill="white"/>
<path d="M23.123 13.9442C22.3415 13.9442 21.5776 14.1759 20.9279 14.6101C20.2781 15.0443 19.7717 15.6613 19.4726 16.3833C19.1736 17.1053 19.0953 17.8997 19.2478 18.6662C19.4003 19.4326 19.7766 20.1366 20.3291 20.6892C20.8817 21.2418 21.5857 21.6181 22.3522 21.7705C23.1186 21.923 23.913 21.8447 24.635 21.5457C25.357 21.2466 25.9741 20.7402 26.4082 20.0905C26.8424 19.4407 27.0741 18.6768 27.0741 17.8953C27.0741 16.8474 26.6578 15.8424 25.9169 15.1015C25.1759 14.3605 24.1709 13.9442 23.123 13.9442ZM23.123 20.4674C22.6143 20.4674 22.117 20.3165 21.6941 20.0339C21.2711 19.7513 20.9414 19.3496 20.7468 18.8796C20.5521 18.4096 20.5012 17.8925 20.6004 17.3936C20.6996 16.8946 20.9446 16.4363 21.3043 16.0766C21.664 15.7169 22.1223 15.472 22.6212 15.3727C23.1201 15.2735 23.6373 15.3244 24.1073 15.5191C24.5772 15.7138 24.9789 16.0434 25.2615 16.4664C25.5442 16.8894 25.695 17.3866 25.695 17.8953C25.6932 18.5763 25.4214 19.2287 24.9393 19.7096C24.4571 20.1904 23.8039 20.4605 23.123 20.4605V20.4674Z" fill="#FF7A2F"/>
<path d="M31.239 18.6124C30.7711 18.5994 30.3072 18.5229 29.8599 18.3849V18.7779C29.8599 21.5775 28.1912 24.0668 26.9707 25.8872L26.7224 26.2526C25.5364 28.0317 23.9642 30.0245 23.1161 31.0105C22.3024 30.0245 20.6958 28.0317 19.5098 26.2526L19.2753 25.8596C18.0548 24.0392 16.3792 21.5499 16.3792 18.7504C16.3834 17.5909 16.6867 16.4521 17.2599 15.4442C17.8331 14.4363 18.6568 13.5934 19.6511 12.9971C20.6455 12.4008 21.777 12.0712 22.936 12.0402C24.0951 12.0092 25.2425 12.2779 26.2673 12.8202C26.3222 12.3461 26.4429 11.8819 26.6259 11.4411C25.3876 10.8431 24.0175 10.57 22.6446 10.6477C21.2716 10.7254 19.9411 11.1512 18.7781 11.8851C17.6152 12.619 16.6582 13.6368 15.9973 14.8427C15.3363 16.0486 14.9932 17.4028 15.0001 18.7779C15.0001 21.9981 16.8067 24.6943 18.1307 26.6595L18.372 27.018C19.6892 28.9272 21.1023 30.7683 22.6058 32.5344L23.1299 33.1481L23.6539 32.5344C25.1573 30.7682 26.5703 28.927 27.8878 27.018L28.1291 26.6526C29.4462 24.6874 31.2528 21.9981 31.2528 18.7779C31.2459 18.7228 31.239 18.6676 31.239 18.6124Z" fill="#FF7A2F"/>
<path d="M31.3976 16.8955C33.3017 16.8955 34.8453 15.3519 34.8453 13.4477C34.8453 11.5436 33.3017 10 31.3976 10C29.4934 10 27.9498 11.5436 27.9498 13.4477C27.9498 15.3519 29.4934 16.8955 31.3976 16.8955Z" fill="#FF7A2F"/>
</svg>
