<svg width="121" height="121" viewBox="0 0 121 121" fill="none" xmlns="http://www.w3.org/2000/svg">
<rect width="121" height="121" rx="20" fill="#F0FAFF"/>
<path d="M61.4985 103C67.848 103 73.0142 97.8345 73.0142 91.4859V77.68C75.277 77.5251 77.0756 75.6545 77.0756 73.3539V68.9395C81.8168 67.9223 86.3315 65.5942 90.0081 61.9183C100.118 51.8083 100.165 35.3954 90.1668 25.2144L90.367 23.5055C90.5197 22.2006 90.152 20.912 89.3327 19.8755C88.5134 18.839 87.3441 18.1859 86.0387 18.0339C84.7397 17.8819 83.446 18.2489 82.4102 19.0681C81.3738 19.8874 80.7206 21.0567 80.5686 22.3621L80.2868 24.7717C80.1341 26.0766 80.5018 27.3651 81.3211 28.4016C82.1404 29.4381 83.3097 30.0913 84.6151 30.2433C84.8086 30.2655 84.9999 30.2774 85.1904 30.2774C87.0314 30.2774 88.6862 29.2431 89.5299 27.6773C97.8049 37.074 97.4801 51.4424 88.506 60.4162C79.1672 69.7535 63.9703 69.7535 54.634 60.4162C45.5984 51.3807 45.3329 36.8789 53.7813 27.4875C54.5924 29.1564 56.2939 30.2767 58.2075 30.2767C58.398 30.2767 58.5893 30.2663 58.7828 30.2425C61.4837 29.9267 63.4248 27.4726 63.1097 24.7709L62.8273 22.3614C62.6753 21.0573 62.0213 19.8873 60.9863 19.0674C59.9513 18.2481 58.6605 17.8826 57.3564 18.0331C56.0515 18.1859 54.8831 18.8398 54.0624 19.8748C53.2431 20.9113 52.8761 22.1991 53.0281 23.5047L53.2016 24.992C53.1793 25.0113 53.1519 25.0187 53.1304 25.0387C42.9642 35.2064 42.9642 51.7495 53.1304 61.9172C57.0206 65.8074 61.8465 68.197 66.8888 69.1098V73.3528C66.8888 75.6327 68.6563 77.4884 70.8909 77.6738V91.4849C70.8909 96.6622 66.679 100.873 61.5016 100.873C56.3252 100.873 52.1131 96.6616 52.1131 91.4849V82.5791C52.1131 76.2296 46.9476 71.0649 40.5974 71.0649C34.4518 71.0649 29.4287 75.9087 29.1129 81.9778C26.2636 82.1794 24 84.5371 24 87.4368V88.7328C24 91.7653 26.4659 94.2312 29.4984 94.2312H30.7929C33.8253 94.2312 36.2912 91.7653 36.2912 88.7328V87.4368C36.2912 84.5572 34.0588 82.215 31.2385 81.9844C31.5492 77.0858 35.6218 73.192 40.598 73.192C45.7753 73.192 49.9873 77.4039 49.9873 82.5806V91.4865C49.9851 97.8331 55.1498 102.999 61.4992 102.999L61.4985 103ZM84.8594 28.1308C84.1187 28.0433 83.4529 27.6718 82.9866 27.0809C82.5202 26.49 82.3096 25.7575 82.3956 25.0168L82.6774 22.6073C82.7634 21.8666 83.1378 21.2023 83.7265 20.7345C84.3174 20.2667 85.0521 20.0583 85.7898 20.1443C86.5305 20.2318 87.1963 20.6032 87.6626 21.1941C88.129 21.785 88.3395 22.5176 88.2535 23.2575L87.9718 25.667C87.7931 27.2047 86.3866 28.3064 84.8594 28.1306L84.8594 28.1308ZM55.7267 21.1956C56.1923 20.6047 56.8573 20.2325 57.5995 20.1457C57.7092 20.1331 57.8175 20.1265 57.9272 20.1265C58.5544 20.1265 59.1602 20.3378 59.6643 20.7352C60.2552 21.2015 60.6274 21.8658 60.7134 22.608L60.9959 25.0175C61.1746 26.5545 60.0699 27.952 58.5328 28.1314C56.9981 28.3145 55.5991 27.2054 55.4189 25.6683L55.1372 23.2588C55.0497 22.5189 55.2603 21.7849 55.7266 21.1955L55.7267 21.1956ZM69.012 73.3531V69.4163C69.861 69.4993 70.7151 69.5438 71.567 69.5438C72.6976 69.5438 73.8252 69.4437 74.9492 69.2984V73.3546C74.9492 74.5846 73.9491 75.5856 72.7168 75.5856H71.2429C70.0129 75.5841 69.0119 74.5839 69.0119 73.3531L69.012 73.3531ZM34.1625 87.4355V88.7315C34.1625 90.5917 32.65 92.1043 30.7897 92.1043H29.4952C27.6365 92.1043 26.1225 90.5918 26.1225 88.7315V87.4355C26.1225 85.5768 27.6357 84.0642 29.4952 84.0642H30.7897C32.65 84.0642 34.1625 85.5767 34.1625 87.4355Z" fill="#202020"/>
<path d="M67.6272 58.6244C68.9343 59.4088 70.3971 59.8114 71.8844 59.8114C72.5591 59.8114 73.2397 59.7283 73.9115 59.5608C76.0631 59.0233 77.8759 57.6798 79.0175 55.778C80.1578 53.8762 80.4915 51.6447 79.9532 49.4931C78.8433 45.0521 74.3244 42.3406 69.8863 43.4529C65.4453 44.5628 62.7353 49.0788 63.8461 53.5198C64.3843 55.6721 65.727 57.4842 67.6273 58.6245L67.6272 58.6244ZM70.4015 45.5163C70.9034 45.391 71.4039 45.3317 71.8991 45.3317C74.6661 45.3317 77.1914 47.2074 77.8919 50.0107C78.2916 51.6106 78.0447 53.2707 77.1958 54.6853C76.3468 56.0999 74.999 57.0994 73.3982 57.4989C71.7967 57.8993 70.1382 57.6517 68.7236 56.8027C67.3097 55.9545 66.3095 54.606 65.9099 53.0052C65.0825 49.7007 67.0977 46.3422 70.4014 45.5162L70.4015 45.5163Z" fill="#202020"/>
<path d="M57.6891 40.3787C56.6497 40.6382 55.7748 41.2862 55.224 42.2048C54.6731 43.1234 54.513 44.2 54.7732 45.2378C55.0327 46.2765 55.6807 47.1506 56.5993 47.7014C57.231 48.0796 57.9361 48.2745 58.6537 48.2745C58.98 48.2745 59.3084 48.2345 59.6324 48.1537C60.6718 47.8942 61.5467 47.2462 62.0975 46.3276C62.6491 45.409 62.81 44.3324 62.549 43.2946C62.0123 41.1511 59.8311 39.8432 57.6892 40.3786L57.6891 40.3787ZM60.2744 45.2349C60.0164 45.6657 59.6049 45.9704 59.1171 46.0928C58.627 46.2173 58.1221 46.1395 57.6921 45.8814C57.2613 45.6219 56.9573 45.212 56.8343 44.7241C56.7134 44.237 56.7876 43.7306 57.0471 43.2998C57.3051 42.8683 57.7165 42.5644 58.2037 42.442C58.3564 42.4035 58.5099 42.3857 58.6604 42.3857C59.5034 42.3857 60.2737 42.9573 60.4872 43.8122C60.6088 44.2978 60.5339 44.8034 60.2744 45.2349V45.2349Z" fill="#202020"/>
<path d="M66.4107 40.8949C66.7317 40.8949 67.0572 40.8556 67.3819 40.7748C69.5269 40.2388 70.8354 38.0584 70.2986 35.9142C69.7626 33.7715 67.5776 32.4651 65.4393 32.9975C63.2943 33.5335 61.9872 35.7139 62.5241 37.8581C62.9771 39.6775 64.615 40.8949 66.4107 40.8949L66.4107 40.8949ZM65.9532 35.0615C66.1059 35.023 66.2579 35.0052 66.4099 35.0052C67.2529 35.0052 68.0232 35.5768 68.2367 36.4317C68.4873 37.4385 67.8735 38.4616 66.8666 38.7137C65.8598 38.9657 64.8352 38.3511 64.5846 37.3435C64.3348 36.3359 64.9479 35.3121 65.9533 35.0615L65.9532 35.0615Z" fill="#202020"/>
<path d="M79.3853 33.451C78.4682 32.9001 77.388 32.7385 76.3523 32.9994C74.2073 33.5355 72.9001 35.7159 73.4371 37.8601C73.6966 38.8988 74.3446 39.7729 75.2632 40.3237C75.8949 40.7018 76.6 40.8968 77.3176 40.8968C77.6438 40.8968 77.9723 40.8568 78.2963 40.776C80.4405 40.2399 81.7484 38.0595 81.213 35.9167C80.952 34.8764 80.3025 34.0008 79.3854 33.4507L79.3853 33.451ZM77.7787 38.7128C77.2886 38.8374 76.7852 38.7588 76.3537 38.5015C75.9229 38.242 75.6189 37.832 75.4959 37.3442C75.375 36.8571 75.4491 36.3507 75.7086 35.9199C75.9667 35.4884 76.3781 35.1844 76.8653 35.0621C77.018 35.0236 77.1715 35.005 77.3257 35.005C77.6623 35.005 77.9944 35.0962 78.291 35.2742C78.7217 35.5322 79.0257 35.9436 79.1488 36.4315C79.4001 37.4376 78.7848 38.4614 77.7787 38.7129V38.7128Z" fill="#202020"/>
<path d="M81.2988 45.1313C81.5568 46.17 82.2062 47.0456 83.1234 47.5964C83.7551 47.9745 84.4616 48.1695 85.1793 48.1695C85.5056 48.1695 85.834 48.1295 86.158 48.0487C87.1974 47.7892 88.0723 47.1412 88.6231 46.2226C89.174 45.3054 89.3341 44.2274 89.0739 43.1895C88.8144 42.1508 88.1664 41.2752 87.2493 40.7244C86.3322 40.1735 85.252 40.0134 84.2162 40.2729C83.1768 40.5324 82.3019 41.1803 81.7511 42.099C81.1987 43.0153 81.0393 44.0934 81.2988 45.1314C81.2981 45.1314 81.2988 45.1314 81.2988 45.1314L81.2988 45.1313ZM84.7285 42.334C84.8812 42.2954 85.0354 42.2769 85.1889 42.2769C85.5248 42.2769 85.8577 42.3681 86.1527 42.546C86.5842 42.804 86.8882 43.2155 87.0113 43.7034C87.1321 44.1905 87.058 44.6969 86.7985 45.1276C86.5405 45.5591 86.129 45.8631 85.6419 45.9854C85.1533 46.11 84.6462 46.0321 84.2169 45.7741C83.7861 45.5161 83.4822 45.1046 83.3606 44.6175C83.3606 44.6175 83.3598 44.6175 83.3598 44.6168C83.1085 43.6099 83.7231 42.5861 84.7285 42.334L84.7285 42.334Z" fill="#202020"/>
</svg>
