<svg width="51" height="45" viewBox="0 0 51 45" fill="none" xmlns="http://www.w3.org/2000/svg">
<path d="M50.3454 22.6787C50.3454 34.8289 41.8388 44.6787 31.3454 44.6787C20.852 44.6787 -10.1498 18.4225 3.34537 5.17867C11.2498 -2.57859 20.852 0.678673 31.3454 0.678673C41.8388 0.678673 50.3454 10.5284 50.3454 22.6787Z" fill="white"/>
<path d="M31.2275 10H19.6534C19.2149 10 18.7944 10.1742 18.4843 10.4843C18.1742 10.7944 18 11.2149 18 11.6534V31.4947C18 31.9332 18.1742 32.3538 18.4843 32.6639C18.7944 32.9739 19.2149 33.1481 19.6534 33.1481H31.2275C31.666 33.1481 32.0866 32.9739 32.3967 32.6639C32.7068 32.3538 32.881 31.9332 32.881 31.4947V11.6534C32.881 11.2149 32.7068 10.7944 32.3967 10.4843C32.0866 10.1742 31.666 10 31.2275 10ZM19.6534 11.6534H31.2275V26.5344H19.6534V11.6534ZM19.6534 31.4947V28.1878H31.2275V31.4947H19.6534Z" fill="#FF7A2F"/>
<path d="M24.6138 29.0145H26.2672V30.668H24.6138V29.0145Z" fill="#FF7A2F"/>
</svg>
