<svg width="36" height="32" viewBox="0 0 36 32" fill="none" xmlns="http://www.w3.org/2000/svg">
<path d="M4.18438 9.51356C5.26635 9.51356 6.42074 10.9549 6.42074 13.0452C6.42074 15.135 5.19434 16.5768 4.18438 16.5768C3.10242 16.5768 1.94803 15.1355 1.94803 13.0452C1.94803 10.9549 3.10246 9.51356 4.18438 9.51356ZM4.18438 7.5675C1.8755 7.5675 0 10.0178 0 13.0448C0 16.0718 1.87563 18.5221 4.18438 18.5221C6.49327 18.5221 8.36877 16.0718 8.36877 13.0448C8.36877 10.0178 6.49314 7.5675 4.18438 7.5675V7.5675Z" fill="#FF7A2F"/>
<path d="M31.7436 9.51356C32.8255 9.51356 33.9799 10.9549 33.9799 13.0452C33.9799 15.135 32.7535 16.5768 31.7436 16.5768C30.6616 16.5768 29.5072 15.1355 29.5072 13.0452C29.5072 10.9549 30.7336 9.51356 31.7436 9.51356ZM31.7436 7.5675C29.4347 7.5675 27.5592 10.0178 27.5592 13.0448C27.5592 16.0718 29.4348 18.5221 31.7436 18.5221C34.052 18.5226 36 15.9999 36 12.973C36 9.94612 34.1244 7.56763 31.7436 7.56763V7.5675Z" fill="#FF7A2F"/>
<path d="M12.3367 1.94606C13.4187 1.94606 14.5731 3.38736 14.5731 5.47769C14.5731 7.56751 13.3467 9.00933 12.3367 9.00933C11.3267 9.00933 10.1004 7.56802 10.1004 5.47769C10.1004 3.38736 11.2548 1.94606 12.3367 1.94606ZM12.3367 0C10.0278 0 8.15234 2.4503 8.15234 5.47731C8.15234 8.5047 10.028 10.955 12.3367 10.955C14.6456 10.955 16.5211 8.5047 16.5211 5.47769C16.5211 2.4503 14.6451 0 12.3367 0V0Z" fill="#FF7A2F"/>
<path d="M23.5912 1.94606C24.6732 1.94606 25.8276 3.38736 25.8276 5.47769C25.8276 7.56751 24.6012 9.00933 23.5912 9.00933C22.5812 9.00933 21.3549 7.56802 21.3549 5.47769C21.3549 3.38736 22.5093 1.94606 23.5912 1.94606ZM23.5912 0C21.2824 0 19.4069 2.4503 19.4069 5.47731C19.4069 8.50431 21.2825 10.9546 23.5912 10.9546C25.9001 10.9546 27.7756 8.50431 27.7756 5.47731C27.7756 2.4503 25.9 0 23.5912 0Z" fill="#FF7A2F"/>
<path d="M17.964 13.1892C19.8396 13.1892 21.5712 14.1982 22.3648 15.9281C23.3748 17.9461 25.034 19.6036 27.0539 20.6125C28.7131 21.4772 29.7955 23.1352 29.7955 25.0088C29.7955 27.7477 27.5592 29.9819 24.8174 29.9819C24.0238 29.9819 23.2303 29.7657 22.5086 29.4052C21.1377 28.6843 19.4785 28.3244 17.8913 28.3244C16.2321 28.3244 14.6449 28.6848 13.2741 29.4052C12.5524 29.7657 11.8313 29.9819 10.9652 29.9819C8.22355 29.9819 5.98707 27.7478 5.98707 25.0088C5.98707 23.1351 6.99707 21.4052 8.72869 20.6125C10.7487 19.6035 12.4079 17.9459 13.4178 15.9281C14.3564 14.27 16.0881 13.1892 17.9636 13.1892H17.964ZM17.9636 11.2432C15.2944 11.2432 12.9136 12.7569 11.831 15.063C10.9655 16.7205 9.66657 18.09 8.00738 18.8827C5.77102 20.036 4.18372 22.342 4.18372 25.0809C4.18372 28.9007 7.28567 32 11.1099 32C12.2643 32 13.3462 31.7119 14.2843 31.2072C15.4388 30.6306 16.7371 30.3425 18.036 30.3425C19.3343 30.3425 20.6332 30.6306 21.7876 31.2072C22.7257 31.7119 23.8077 32 24.9621 32C28.7858 32 31.8883 28.9012 31.8883 25.0809C31.8883 22.4144 30.373 20.036 28.0646 18.8827C26.4054 18.018 25.0345 16.7205 24.2409 15.063C23.0135 12.8289 20.6327 11.2432 17.9635 11.2432H17.9636Z" fill="#FF7A2F"/>
</svg>
