<svg width="50" height="50" viewBox="0 0 50 50" fill="none" xmlns="http://www.w3.org/2000/svg">
<circle cx="24.9126" cy="24.5825" r="24.5825" fill="#F8F6EE"/>
<path d="M36.9539 10.0503C31.9992 12.0969 27.3676 14.8974 22.6283 17.3747C17.5658 19.9598 12.6111 22.868 7.54862 25.5608C7.22549 25.7763 7.3332 26.4225 7.65634 26.4225C10.9954 26.9611 14.2268 27.7151 17.4581 28.5768C17.5658 32.239 17.4581 36.0089 17.4581 39.6711C17.4581 40.2096 17.9967 40.3173 18.2121 39.8865C19.9355 37.086 21.6589 34.3932 23.49 31.7004C26.075 33.4238 28.6601 35.1472 31.0298 37.086C31.2452 37.3014 31.5683 37.086 31.6761 36.7628C32.43 32.3467 33.184 28.0382 34.3688 23.622C35.446 19.3136 36.5231 14.8974 37.3848 10.4812C37.6002 10.3735 37.2771 9.94263 36.9539 10.0503ZM20.3663 28.7922C20.2586 28.8999 20.1509 29.0076 20.1509 29.223C20.0432 29.5462 19.8278 29.977 19.7201 30.5156C19.1815 32.7775 18.8584 35.0395 18.3198 37.3014V28.3613C23.3822 23.4066 28.5524 18.5596 33.8303 13.928C30.7066 17.3747 27.583 20.8215 24.3517 24.376L21.4434 27.6073C20.9049 28.0382 20.5817 28.3613 20.3663 28.7922ZM34.7997 11.9892C28.9833 17.0516 23.2745 22.3295 17.7812 27.7151C14.873 26.9611 11.9648 26.2071 9.05659 25.6685C13.6882 23.2989 18.1044 20.8215 22.6283 18.4519C26.7213 16.2976 30.7066 13.928 34.7997 11.9892ZM18.9661 37.1937C19.5046 35.2549 19.8278 33.2084 20.2586 31.1618C20.3663 30.6233 20.474 30.1924 20.5817 29.7616C21.3357 30.3001 22.0897 30.8387 22.8437 31.2695C21.5512 33.2084 20.2586 35.2549 18.9661 37.1937ZM33.6149 23.622C32.5377 27.7151 31.7838 31.8081 31.0298 36.0089C27.7984 33.5315 24.3517 31.2695 21.0126 29.0076C21.0126 29.0076 21.0126 28.8999 21.1203 28.8999C21.5512 28.3613 21.982 27.9305 22.4128 27.4996L25.3211 24.2683C28.9833 20.283 32.6455 16.1899 36.3077 12.2046C35.5537 15.9745 34.5843 19.7444 33.6149 23.622Z" fill="#365166" stroke="#365166" stroke-width="0.6"/>
</svg>
