<svg width="50" height="50" viewBox="0 0 50 50" fill="none" xmlns="http://www.w3.org/2000/svg">
<circle cx="24.5825" cy="24.5864" r="24.5825" fill="#F8F6EE"/>
<path d="M16.2475 20.7292C16.0179 19.5524 16.0823 18.3775 16.6282 17.3679L16.2475 20.7292ZM16.2475 20.7292C16.7056 23.0788 18.3251 25.5865 20.3567 27.6643C22.3881 29.7421 24.8505 31.4198 27.2161 31.9105C28.4015 32.1563 29.5963 32.0941 30.6351 31.5501C31.676 31.0051 32.4929 29.9942 32.9965 28.5715L32.9967 28.5708C33.1134 28.2357 32.9847 27.8645 32.6859 27.6736L32.6848 27.6729L28.3116 24.93L28.3033 24.9219L28.2915 24.9141C28.2664 24.8975 28.2411 24.8829 28.2153 24.8698C28.1372 24.8205 28.0506 24.7856 27.9597 24.7669L27.9448 24.7639H27.9296H27.9266C27.9133 24.7611 27.8997 24.7585 27.8859 24.7563L27.8741 24.7544H27.8622H27.8567C27.7306 24.7478 27.6047 24.7724 27.4902 24.8266L27.4901 24.8267C27.4497 24.8458 27.4114 24.8686 27.3754 24.8945C27.3531 24.908 27.3312 24.9227 27.31 24.9387L27.2913 24.9528L27.2778 24.972C27.274 24.9775 27.2703 24.9829 27.2667 24.9883C27.2446 25.0084 27.2235 25.0299 27.2037 25.0527L26.3225 25.9427C24.6883 25.0916 23.4093 23.6975 22.251 21.8107L23.0513 21.0192C23.0669 21.0051 23.0819 20.9903 23.0961 20.9748L23.1133 20.9578C23.1165 20.9547 23.1197 20.9516 23.1229 20.9484L23.3113 20.762H23.255C23.2605 20.7487 23.2657 20.7353 23.2705 20.7219L23.2783 20.6997C23.2837 20.6893 23.2891 20.6785 23.2942 20.6673L23.3002 20.6542L23.3036 20.6401C23.3085 20.6203 23.3125 20.6002 23.3157 20.5803L23.3175 20.5685V20.562C23.321 20.5439 23.3239 20.5257 23.3261 20.5076L23.3272 20.4985V20.4894V20.4825C23.3279 20.4646 23.3279 20.4468 23.3272 20.4288V20.425C23.3279 20.407 23.3279 20.3891 23.3272 20.3712V20.3549V20.343L23.3253 20.3312C23.3231 20.3175 23.3205 20.3037 23.3175 20.2899V20.2776L23.3125 20.2586C23.3105 20.251 23.3083 20.2434 23.3061 20.2359H23.4431L23.1901 19.9829L20.4581 15.4968C20.458 15.4966 20.458 15.4965 20.4579 15.4963C20.3346 15.2915 20.1233 15.1569 19.8879 15.1303L19.8845 15.1117L19.7471 15.1251C19.6906 15.1307 19.635 15.1425 19.5809 15.1606C18.1823 15.5905 17.1752 16.356 16.6282 17.3679L16.2475 20.7292ZM17.9793 18.0971C18.2521 17.5926 18.709 17.1498 19.4789 16.8187L21.5925 20.3113L20.7432 21.1517L20.7432 21.1517L20.7422 21.1528C20.4994 21.3976 20.4503 21.775 20.6226 22.0739L20.6226 22.074C22.0549 24.5542 23.7626 26.5028 26.1658 27.562C26.4539 27.69 26.791 27.6283 27.0151 27.4064L27.0156 27.4059L27.922 26.4995L31.3263 28.6271C30.9455 29.4306 30.465 29.9066 29.9281 30.188C29.2756 30.5295 28.4683 30.6 27.5269 30.4048C25.639 30.0132 23.3346 28.5203 21.4467 26.589L21.4467 26.589C19.5586 24.6578 18.111 22.3217 17.7444 20.4406L17.7444 20.4406C17.5616 19.5029 17.6458 18.7136 17.9793 18.0971L17.9793 18.0971Z" fill="#365166" stroke="#365166" stroke-width="0.3"/>
<path d="M11.6027 36.0286L11.6027 36.0287C11.5204 36.3038 11.5989 36.6018 11.8061 36.8007C12.0134 36.9997 12.3144 37.0656 12.5858 36.9722L12.586 36.9721L17.467 35.2877C19.5374 36.5507 21.9787 37.2789 24.5826 37.2789C32.1402 37.2789 38.278 31.141 38.278 23.5835C38.278 16.0259 32.1402 9.88809 24.5826 9.88809H24.5274L24.5272 9.88832C16.9978 9.9182 10.8871 16.0445 10.8871 23.5836C10.8871 26.3059 11.6868 28.8519 13.0976 31.0399L11.6027 36.0286ZM24.5398 11.4194L24.54 11.4195H24.5825C31.3092 11.4195 36.7465 16.8568 36.7465 23.5835C36.7465 30.3102 31.3092 35.7475 24.5825 35.7475C22.1438 35.7475 19.8763 35.0322 17.9799 33.802L17.7483 33.6518V33.7016C17.6062 33.6662 17.4551 33.6719 17.3134 33.7208L17.3134 33.7208L13.4981 35.0375L14.6671 31.1364L14.6671 31.1364C14.7334 30.9153 14.6962 30.6761 14.5665 30.4855L14.5664 30.4854C13.1915 28.468 12.4182 26.1201 12.4182 23.5833C12.4182 16.8708 17.836 11.4422 24.5398 11.4194Z" fill="#365166" stroke="#365166" stroke-width="0.3"/>
</svg>
