<svg width="28" height="29" viewBox="0 0 28 29" fill="none" xmlns="http://www.w3.org/2000/svg">
<path d="M23.4597 4.02534C20.864 1.42936 17.4135 0 13.7423 0C10.0711 0 6.62066 1.42936 4.0249 4.02534C1.42914 6.62109 0 10.0715 0 13.7422C0 16.6623 0.89999 19.4414 2.60472 21.794L0.826981 28.4298C0.785142 28.5861 0.829756 28.753 0.944386 28.8674C1.03041 28.9535 1.14611 29 1.2648 29C1.30408 29 1.34314 28.9949 1.38221 28.9846L9.48753 26.8128C10.858 27.2588 12.2886 27.4848 13.743 27.4848C17.4138 27.4848 20.8647 26.0555 23.4604 23.4599C26.0559 20.8644 27.4853 17.4132 27.4853 13.7425C27.4847 10.0717 26.0553 6.62084 23.4598 4.02563L23.4597 4.02534ZM13.7423 26.5784C12.3403 26.5784 10.9619 26.3536 9.64545 25.9104C9.56092 25.882 9.46977 25.8792 9.38374 25.9021L1.90577 27.9059L3.53689 21.8182C3.57297 21.6839 3.54522 21.5405 3.46196 21.4292C1.7903 19.1972 0.906537 16.5392 0.906537 13.7425C0.906323 6.66456 6.66475 0.906901 13.7421 0.906901C20.8195 0.906901 26.5783 6.66511 26.5783 13.7425C26.5783 20.8205 20.8201 26.5787 13.7421 26.5787L13.7423 26.5784ZM21.1094 17.7326L17.7003 16.4537C17.2913 16.3 16.8637 16.3463 16.4969 16.5841L15.3491 17.3278C15.1993 17.4248 15.0272 17.4256 14.8763 17.3304C14.0839 16.8292 13.3436 16.236 12.6761 15.5676L12.6754 15.5669C12.0069 14.8996 11.4136 14.1591 10.9126 13.3672C10.8172 13.2165 10.8183 13.044 10.9152 12.8943L11.6589 11.7461C11.8965 11.3791 11.9426 10.9518 11.7889 10.5427L10.51 7.13323C10.3664 6.75005 10.0624 6.45675 9.67664 6.32827C9.29091 6.19976 8.87169 6.25249 8.52691 6.47257L6.74234 7.6129C5.76552 8.23709 5.3085 9.36845 5.57748 10.4956C6.27658 13.4248 7.79775 16.1128 9.97404 18.2653C12.1303 20.4449 14.8183 21.9665 17.7476 22.6651C17.9622 22.7164 18.1771 22.7413 18.3885 22.7413C19.2874 22.7413 20.1255 22.2911 20.6305 21.5002L21.7709 19.7157C21.9911 19.3707 22.0437 18.9519 21.9152 18.5659C21.7862 18.18 21.4927 17.8762 21.1095 17.7323L21.1094 17.7326ZM21.0065 19.2281L19.8666 21.0127C19.4471 21.6693 18.7156 21.965 17.9577 21.7841C15.1933 21.1245 12.6554 19.6875 10.6147 17.625C8.55585 15.5877 7.11878 13.0499 6.45875 10.2853C6.27794 9.52747 6.5736 8.7959 7.23021 8.37643L9.01478 7.23653C9.09952 7.18231 9.18192 7.16566 9.25108 7.16566C9.30851 7.16566 9.35696 7.17719 9.39005 7.18829C9.4637 7.21284 9.59669 7.27987 9.66137 7.45192L10.9407 10.861C10.993 11.0004 10.9789 11.1287 10.8982 11.2534L10.1545 12.4016C9.8661 12.8473 9.86289 13.4025 10.1466 13.8515C10.6837 14.7006 11.3189 15.4935 12.0352 16.2081C12.7498 16.9241 13.5427 17.5594 14.3918 18.0967C14.8403 18.3804 15.396 18.3776 15.8417 18.0888L16.9895 17.3455C17.1144 17.2646 17.2429 17.2507 17.3819 17.303L20.7909 18.5823C20.963 18.647 21.03 18.78 21.0546 18.8536C21.0795 18.926 21.1056 19.0726 21.0065 19.228L21.0065 19.2281Z" fill="#365166"/>
</svg>
