<svg width="18" height="18" viewBox="0 0 18 18" fill="none" xmlns="http://www.w3.org/2000/svg">
<path d="M15.33 0H2.66997C1.96244 0.00200892 1.28446 0.283885 0.784218 0.784219C0.283885 1.28442 0.00199285 1.96244 0 2.66997V15.33C0.00200892 16.0376 0.283885 16.7155 0.784218 17.2158C1.28442 17.7161 1.96244 17.998 2.66997 18H15.33C16.0376 17.998 16.7155 17.7161 17.2158 17.2158C17.7161 16.7156 17.998 16.0376 18 15.33V2.66997C17.998 1.96244 17.7161 1.28446 17.2158 0.784219C16.7156 0.283885 16.0376 0.00199285 15.33 0V0ZM16.5 15.3298C16.5 15.6401 16.3768 15.9377 16.1573 16.1571C15.9379 16.3766 15.6403 16.4998 15.33 16.4998H2.66997C2.35972 16.4998 2.06215 16.3766 1.84268 16.1571C1.62321 15.9377 1.50004 15.6401 1.50004 15.3298V2.66978C1.50004 2.35952 1.62321 2.06196 1.84268 1.84249C2.06215 1.62302 2.35973 1.49984 2.66997 1.49984H15.33C15.6403 1.49984 15.9379 1.62302 16.1573 1.84249C16.3768 2.06196 16.5 2.35953 16.5 2.66978V15.3298Z" fill="black"/>
<path d="M8.99998 4.5C7.80656 4.5 6.66199 4.97411 5.81798 5.81798C4.97411 6.66199 4.5 7.80656 4.5 8.99998C4.5 10.1934 4.97411 11.338 5.81798 12.182C6.66199 13.0259 7.80656 13.5 8.99998 13.5C10.1934 13.5 11.338 13.0259 12.182 12.182C13.0259 11.338 13.5 10.1934 13.5 8.99998C13.5 7.80656 13.0259 6.66199 12.182 5.81798C11.338 4.97411 10.1934 4.5 8.99998 4.5ZM8.99998 11.9999C8.20432 11.9999 7.44132 11.6838 6.87869 11.1212C6.31606 10.5586 6.00004 9.79558 6.00004 8.99992C6.00004 8.20426 6.31606 7.44125 6.87869 6.87863C7.44132 6.316 8.20432 5.99997 8.99998 5.99997C9.79565 5.99997 10.5587 6.316 11.1213 6.87863C11.6839 7.44125 11.9999 8.20426 11.9999 8.99992C11.9999 9.79558 11.6839 10.5586 11.1213 11.1212C10.5587 11.6838 9.79565 11.9999 8.99998 11.9999Z" fill="black"/>
<path d="M15 4.125C15 4.74638 14.4963 5.24999 13.875 5.24999C13.2536 5.24999 12.75 4.74638 12.75 4.125C12.75 3.50374 13.2536 3 13.875 3C14.4963 3 15 3.50374 15 4.125Z" fill="black"/>
</svg>
