<svg width="25" height="15" viewBox="0 0 25 15" fill="none" xmlns="http://www.w3.org/2000/svg">
<path d="M24.8674 12.9016C24.8371 12.8362 24.8089 12.782 24.7827 12.7386C24.349 11.9562 23.5201 10.9959 22.2966 9.85729L22.2707 9.83121L22.2578 9.81843L22.2447 9.80533H22.2316C21.6763 9.27515 21.3246 8.91867 21.1774 8.73617C20.9079 8.3885 20.8476 8.03659 20.9948 7.68002C21.0989 7.41062 21.4897 6.84168 22.1663 5.97243C22.5222 5.51175 22.8041 5.14254 23.0123 4.86437C24.5136 2.86532 25.1645 1.5879 24.9648 1.03161L24.8873 0.90161C24.8352 0.823347 24.7007 0.751749 24.484 0.686454C24.2668 0.621295 23.9892 0.61052 23.6507 0.653943L19.9021 0.679879C19.8413 0.658327 19.7546 0.660336 19.6416 0.686454C19.5288 0.712572 19.4724 0.725677 19.4724 0.725677L19.4071 0.758325L19.3553 0.797548C19.3119 0.823483 19.2642 0.869099 19.2121 0.934304C19.1602 0.999279 19.1169 1.07553 19.0822 1.16243C18.6741 2.21405 18.2101 3.1918 17.6893 4.09561C17.3682 4.63455 17.0733 5.10162 16.804 5.49709C16.5351 5.89243 16.3095 6.1837 16.1274 6.37041C15.945 6.5573 15.7804 6.70703 15.6326 6.82013C15.4851 6.93328 15.3724 6.98108 15.2944 6.9636C15.2162 6.94611 15.1426 6.92876 15.0729 6.91141C14.9515 6.83314 14.8538 6.72671 14.7802 6.59201C14.7062 6.4573 14.6565 6.28776 14.6304 6.08352C14.6045 5.87914 14.5892 5.70335 14.5848 5.55554C14.5808 5.40792 14.5826 5.19911 14.5914 4.92971C14.6005 4.66017 14.6045 4.4778 14.6045 4.38218C14.6045 4.05187 14.611 3.69338 14.6239 3.30663C14.637 2.91988 14.6476 2.61345 14.6565 2.3877C14.6653 2.16172 14.6694 1.92264 14.6694 1.67059C14.6694 1.41854 14.6541 1.22087 14.6239 1.07741C14.5939 0.93412 14.548 0.795036 14.4875 0.660199C14.4267 0.525498 14.3376 0.421299 14.2207 0.347328C14.1036 0.273448 13.958 0.214819 13.7847 0.171258C13.3247 0.0670135 12.739 0.0106219 12.0273 0.00185493C10.4133 -0.0154963 9.37629 0.0888851 8.91637 0.314863C8.73415 0.41034 8.56925 0.540794 8.42181 0.705814C8.26557 0.897089 8.24378 1.00147 8.35657 1.01864C8.8773 1.09677 9.24595 1.28366 9.46291 1.57913L9.5411 1.7357C9.60192 1.84867 9.66264 2.04867 9.72342 2.33542C9.7841 2.62217 9.82326 2.93938 9.84049 3.28686C9.8838 3.92142 9.8838 4.4646 9.84049 4.91647C9.79705 5.36851 9.75601 5.72042 9.71685 5.97247C9.67769 6.22452 9.61915 6.42877 9.5411 6.58516C9.46291 6.74159 9.41089 6.83721 9.38482 6.87191C9.35878 6.90661 9.33708 6.92848 9.31985 6.93707C9.20706 6.98035 9.08975 7.00241 8.96835 7.00241C8.84676 7.00241 8.69932 6.9415 8.5258 6.81976C8.35233 6.69803 8.17229 6.53082 7.98569 6.31786C7.79908 6.10485 7.58864 5.80718 7.35426 5.42481C7.12006 5.04245 6.87706 4.59054 6.6254 4.06909L6.41719 3.69092C6.28703 3.44764 6.10923 3.09339 5.8836 2.62852C5.65783 2.16346 5.45828 1.7136 5.28481 1.27905C5.21547 1.09654 5.11129 0.957591 4.97247 0.861976L4.90732 0.822753C4.86401 0.78805 4.79449 0.751201 4.69911 0.711933C4.6036 0.67271 4.50394 0.644582 4.39972 0.627277L0.833213 0.653213C0.468762 0.653213 0.221479 0.735905 0.0912723 0.901062L0.0391623 0.979188C0.0131301 1.0227 0 1.0922 0 1.18786C0 1.28347 0.0260322 1.40082 0.0781422 1.53977C0.598786 2.76532 1.16498 3.94726 1.77671 5.08578C2.38844 6.2243 2.92003 7.1414 3.37115 7.83627C3.82236 8.53165 4.28228 9.18794 4.7509 9.80482C5.21953 10.4219 5.52972 10.8174 5.68149 10.9911C5.83345 11.1652 5.9528 11.2953 6.03956 11.3822L6.36503 11.6951C6.57329 11.9037 6.87911 12.1535 7.28264 12.4446C7.68625 12.7359 8.13308 13.0227 8.62336 13.3054C9.11373 13.5876 9.68421 13.8179 10.3351 13.996C10.9859 14.1743 11.6193 14.2459 12.2355 14.2114H13.7324C14.036 14.1851 14.266 14.0895 14.4223 13.9245L14.4741 13.8591C14.509 13.8073 14.5416 13.7267 14.5717 13.6182C14.6021 13.5096 14.6172 13.3899 14.6172 13.2597C14.6084 12.8861 14.6368 12.5493 14.7017 12.2495C14.7666 11.9498 14.8405 11.7238 14.9232 11.5716C15.0059 11.4196 15.0991 11.2913 15.2029 11.1873C15.307 11.083 15.3811 11.0199 15.4246 10.9981C15.4678 10.9763 15.5023 10.9614 15.5284 10.9525C15.7366 10.883 15.9817 10.9503 16.264 11.1548C16.5461 11.359 16.8106 11.6112 17.0581 11.9109C17.3054 12.2109 17.6026 12.5475 17.9496 12.9211C18.2969 13.2949 18.6005 13.5727 18.8608 13.7555L19.121 13.912C19.2948 14.0163 19.5204 14.112 19.7982 14.1989C20.0754 14.2857 20.3183 14.3074 20.5269 14.264L23.8589 14.212C24.1885 14.212 24.445 14.1573 24.6269 14.0489C24.8091 13.9402 24.9174 13.8205 24.9523 13.6904C24.9872 13.56 24.989 13.4122 24.959 13.2469C24.9281 13.082 24.8977 12.9667 24.8674 12.9016Z" fill="black"/>
</svg>
