<svg width="25" height="25" viewBox="0 0 25 25" fill="none" xmlns="http://www.w3.org/2000/svg">
<path fill-rule="evenodd" clip-rule="evenodd" d="M12.5001 7.76989e-05C5.59102 7.76989e-05 0 5.58769 0 12.5001C0 15.1069 0.794985 17.518 2.20711 19.5899C2.31348 19.7477 2.34226 19.9455 2.28515 20.127L1.0156 24.3751L5.17586 22.9394V22.9396C5.35591 22.8795 5.55362 22.9048 5.71297 23.0079C7.66154 24.2722 9.99443 25 12.4999 25C19.4123 25 25 19.4124 25 12.5C25 5.58761 19.4123 0 12.4999 0L12.5001 7.76989e-05ZM7.38294 5.44918L9.65825 9.20895L8.71086 10.1465L8.71108 10.1467C8.51271 10.3466 8.47282 10.6546 8.61342 10.8986C10.0591 13.4019 11.7718 15.3493 14.1701 16.4063C14.4053 16.511 14.6804 16.4606 14.8635 16.2795L15.8692 15.2737L19.5412 17.5686C19.1347 18.4837 18.6045 19.0285 17.9983 19.3459C17.296 19.7136 16.4382 19.7831 15.4592 19.5802C13.5013 19.1743 11.1364 17.6356 9.20919 15.6641C7.28199 13.6929 5.79051 11.2958 5.41037 9.34549C5.22029 8.37043 5.30422 7.53075 5.66433 6.86507C5.9743 6.2918 6.50094 5.80112 7.38315 5.44906L7.38294 5.44918Z" fill="black"/>
</svg>
