<svg width="51" height="45" viewBox="0 0 51 45" fill="none" xmlns="http://www.w3.org/2000/svg">
<path d="M50.3454 22.6787C50.3454 34.8289 41.8388 44.6787 31.3454 44.6787C20.852 44.6787 -10.1498 18.4225 3.34537 5.17867C11.2498 -2.57859 20.852 0.678673 31.3454 0.678673C41.8388 0.678673 50.3454 10.5284 50.3454 22.6787Z" fill="white"/>
<path d="M35.2275 12H23.6534C23.2149 12 22.7944 12.1742 22.4843 12.4843C22.1742 12.7944 22 13.2149 22 13.6534V33.4947C22 33.9332 22.1742 34.3538 22.4843 34.6639C22.7944 34.9739 23.2149 35.1481 23.6534 35.1481H35.2275C35.666 35.1481 36.0866 34.9739 36.3967 34.6639C36.7068 34.3538 36.881 33.9332 36.881 33.4947V13.6534C36.881 13.2149 36.7068 12.7944 36.3967 12.4843C36.0866 12.1742 35.666 12 35.2275 12ZM23.6534 13.6534H35.2275V28.5344H23.6534V13.6534ZM23.6534 33.4947V30.1878H35.2275V33.4947H23.6534Z" fill="#FF7A2F"/>
<path d="M28.6138 31.0145H30.2672V32.668H28.6138V31.0145Z" fill="#FF7A2F"/>
</svg>
