<svg width="19" height="19" viewBox="0 0 19 19" fill="none" xmlns="http://www.w3.org/2000/svg">
<path d="M9.5 4.98727C8.61806 4.98727 7.75592 5.24602 7.02261 5.73079C6.2893 6.21557 5.71776 6.9046 5.38025 7.71076C5.04275 8.51691 4.95444 9.40398 5.1265 10.2598C5.29856 11.1156 5.72325 11.9017 6.34688 12.5187C6.97051 13.1357 7.76506 13.5559 8.63006 13.7261C9.49505 13.8964 10.3916 13.809 11.2065 13.4751C12.0213 13.1412 12.7177 12.5757 13.2077 11.8502C13.6977 11.1246 13.9592 10.2717 13.9592 9.39909C13.9578 8.22941 13.4876 7.10801 12.6516 6.28092C11.8157 5.45383 10.6822 4.98859 9.5 4.98727ZM9.5 12.66C8.84813 12.66 8.2109 12.4687 7.66889 12.1104C7.12687 11.7521 6.70443 11.2428 6.45497 10.647C6.20551 10.0511 6.14024 9.39547 6.26741 8.76291C6.39459 8.13036 6.70849 7.54932 7.16943 7.09328C7.63038 6.63723 8.21765 6.32666 8.857 6.20084C9.49634 6.07501 10.159 6.13959 10.7613 6.3864C11.3635 6.63321 11.8783 7.05117 12.2405 7.58742C12.6026 8.12368 12.7959 8.75414 12.7959 9.39909C12.7949 10.2636 12.4473 11.0925 11.8295 11.7038C11.2116 12.3151 10.3738 12.659 9.5 12.66ZM13.7653 0H5.23469C3.84685 0.00157381 2.51631 0.547732 1.53496 1.51866C0.553612 2.48958 0.00159071 3.80599 0 5.17909V13.6191C0.00159071 14.9922 0.553612 16.3086 1.53496 17.2795C2.51631 18.2504 3.84685 18.7966 5.23469 18.7982H13.7653C15.1531 18.7966 16.4837 18.2504 17.465 17.2795C18.4464 16.3086 18.9984 14.9922 19 13.6191V5.17909C18.9984 3.80599 18.4464 2.48958 17.465 1.51866C16.4837 0.547732 15.1531 0.00157381 13.7653 0ZM17.8367 13.6191C17.8355 14.6871 17.4062 15.7109 16.6429 16.4661C15.8796 17.2213 14.8447 17.6461 13.7653 17.6473H5.23469C4.15525 17.6461 3.12037 17.2213 2.35709 16.4661C1.59381 15.7109 1.16447 14.6871 1.16327 13.6191V5.17909C1.16447 4.11111 1.59381 3.08722 2.35709 2.33205C3.12037 1.57688 4.15525 1.1521 5.23469 1.15091H13.7653C14.8447 1.1521 15.8796 1.57688 16.6429 2.33205C17.4062 3.08722 17.8355 4.11111 17.8367 5.17909V13.6191ZM15.5102 4.41182C15.5102 4.60151 15.4534 4.78694 15.3468 4.94466C15.2403 5.10238 15.0889 5.22531 14.9118 5.2979C14.7347 5.37049 14.5397 5.38948 14.3517 5.35248C14.1637 5.31547 13.9909 5.22413 13.8554 5.09C13.7198 4.95586 13.6275 4.78497 13.5901 4.59893C13.5527 4.41288 13.5718 4.22004 13.6452 4.04479C13.7186 3.86954 13.8428 3.71975 14.0023 3.61436C14.1617 3.50898 14.3491 3.45273 14.5408 3.45273C14.7978 3.45303 15.0442 3.55417 15.2259 3.73397C15.4077 3.91377 15.5099 4.15754 15.5102 4.41182Z" fill="#565656"/>
</svg>
